<?xml version="1.0"?>
<svg version="1.1" xmlns="http://www.w3.org/2000/svg" width="461" height="89" style=""><path fill="#04243b" d="M16.57861328125,52.70361328125q0-1.52685546875,0.168212890625-3.70068359375t0.62109375-4.52880859375t1.21630859375-4.68408203125t1.953857421875-4.11474609375t2.8466796875-2.82080078125q1.37158203125-0.85400390625,3.1572265625-0.85400390625q0.3623046875,0,0.75048828125,0.0517578125q4.5029296875,0.4140625,6.922607421875,2.057373046875t3.532470703125,4.16650390625t1.2939453125,5.7451171875t0.18115234375,6.793212890625q0,2.87255859375-0.530517578125,6.249755859375t-1.876220703125,6.301513671875t-3.713623046875,4.878173828125t-6.016845703125,1.953857421875q-2.2255859375,0-3.894775390625-0.815185546875t-2.833740234375-2.173828125t-1.9150390625-3.1572265625t-1.138671875-3.7265625t-0.556396484375-3.894775390625t-0.168212890625-3.7265625z M21.83203125,51.5390625q0,1.11279296875,0.02587890625,2.730224609375t0.219970703125,3.403076171875t0.504638671875,3.558349609375t0.918701171875,3.221923828125t1.539794921875,2.380859375t2.25146484375,0.9833984375l0.12939453125,0q1.1904296875,0,2.1220703125-0.90576171875q0.9833984375-0.95751953125,1.746826171875-2.30322265625t1.31982421875-2.833740234375t0.996337890625-2.549072265625l-0.103515625,0.23291015625q0.75048828125-2.380859375,1.00927734375-4.878173828125t0.2587890625-4.929931640625q0-1.16455078125-0.1552734375-2.807861328125t-0.504638671875-3.428955078125t-0.90576171875-3.532470703125t-1.410400390625-3.040771484375t-1.99267578125-1.966796875q-0.828125-0.49169921875-1.83740234375-0.517578125q-0.38818359375,0-0.7763671875,0.07763671875q-1.31982421875,0.2587890625-2.25146484375,1.2939453125t-1.513916015625,2.549072265625t-0.892822265625,3.3125t-0.478759765625,3.623046875t-0.194091796875,3.49365234375t-0.02587890625,2.833740234375z M33.50341796875,59.509765625l0-0.0517578125l0,0.0517578125z M44.596928710938,61.4765625l0-0.75048828125q0-0.931640625,0.0517578125-1.759765625q0.0517578125-1.16455078125,0.0517578125-1.9150390625q0-0.4140625,0.0517578125-0.944580078125t0.2587890625-0.841064453125q0.2587890625-0.2587890625,0.608154296875-0.530517578125t0.763427734375-0.271728515625q1.31982421875,0,2.0703125,0.297607421875t0.80224609375,1.229248046875l0.103515625,0.80224609375q0.4658203125-1.11279296875,1.2421875-2.756103515625t1.798583984375-3.13134765625t2.30322265625-2.5361328125t2.704345703125-1.048095703125q1.31982421875,0,2.173828125,1.2421875t1.358642578125,3.170166015625t0.711669921875,4.2958984375t0.28466796875,4.645263671875t0.103515625,4.153564453125t0.18115234375,2.833740234375q0.103515625,0.80224609375,0.349365234375,1.695068359375t0.245849609375,1.643310546875q0,0.20703125-0.297607421875,0.401123046875t-0.634033203125,0.323486328125t-0.685791015625,0.20703125t-0.504638671875,0.07763671875q-1.00927734375,0-1.436279296875-1.513916015625t-0.530517578125-3.791259765625t-0.103515625-4.929931640625t-0.18115234375-4.929931640625t-0.737548828125-3.791259765625t-1.772705078125-1.565673828125q-1.11279296875,0-2.30322265625,1.436279296875t-2.04443359375,3.817138671875q-0.828125,2.380859375-1.138671875,5.40869140625q-0.103515625,0.95751953125-0.103515625,1.9150390625q0,2.09619140625,0.43994140625,4.1923828125q0.0517578125,0.3623046875-0.297607421875,0.54345703125t-0.866943359375,0.28466796875t-1.048095703125,0.12939453125t-0.815185546875,0.02587890625q-1.00927734375,0-1.617431640625-0.711669921875t-0.944580078125-1.824462890625t-0.452880859375-2.497314453125t-0.142333984375-2.730224609375z M68.112314453125,70.5341796875q0-0.75048828125,0.064697265625-1.57861328125t0.116455078125-1.552734375l0.1552734375-3.8818359375q0.2587890625-4.658203125,0.634033203125-9.1611328125t0.634033203125-9.109375q0.1552734375-2.5361328125,0.23291015625-4.981689453125t0.23291015625-4.981689453125q-0.103515625-0.20703125-0.103515625-0.28466796875q0-0.3623046875,0.271728515625-0.5693359375t0.634033203125-0.349365234375t0.763427734375-0.194091796875t0.608154296875-0.0517578125l0.59521484375,0q0.80224609375,0.103515625,1.16455078125,0.504638671875t0.4658203125,0.95751953125t0.0517578125,1.1904296875t-0.0517578125,1.177490234375q0,3.75244140625-0.18115234375,7.647216796875t-0.4140625,7.8154296875t-0.427001953125,7.84130859375t-0.194091796875,7.750732421875l0,1.8115234375q0,1.21630859375-0.685791015625,1.6044921875t-1.902099609375,0.38818359375q-1.06103515625,0-1.86328125-0.4658203125t-0.80224609375-1.52685546875z M79.982192382812,60.72607421875q0-2.380859375,0.556396484375-4.671142578125t0.944580078125-4.567626953125q0.103515625-0.59521484375,0.815185546875-0.737548828125t1.203369140625-0.142333984375q0.85400390625,0,1.37158203125,0.2587890625q0.20703125,0.103515625,0.38818359375,0.23291015625t0.18115234375,0.33642578125q0,2.2255859375-0.530517578125,4.34765625t-0.530517578125,4.5029296875q0,0.80224609375,0.116455078125,1.513916015625t0.219970703125,1.410400390625l0.1552734375,0.75048828125q0,0.20703125,0.02587890625,0.3623046875t0.07763671875,0.3623046875q0,0.4658203125-0.659912109375,0.634033203125t-1.151611328125,0.168212890625q-0.75048828125,0-1.384521484375-0.297607421875t-0.996337890625-1.022216796875l-0.3623046875-0.75048828125q-0.310546875-0.59521484375-0.310546875-1.332763671875t-0.12939453125-1.358642578125z M81.638442382812,45.14697265625l0-0.49169921875q0-1.21630859375,0.608154296875-2.173828125t1.824462890625-0.95751953125q0.1552734375,0,0.297607421875,0.02587890625t0.297607421875,0.02587890625q0.310546875,0.0517578125,0.815185546875,0.245849609375t0.504638671875,0.608154296875l0,0.0517578125q-0.103515625,0.20703125-0.12939453125,0.427001953125t-0.12939453125,0.375244140625l0.0517578125-0.0517578125q-0.310546875,0.80224609375-0.504638671875,1.2939453125t-0.427001953125,0.789306640625t-0.582275390625,0.427001953125t-0.996337890625,0.12939453125q-0.103515625,0-0.3623046875-0.02587890625t-0.556396484375-0.103515625t-0.504638671875-0.20703125t-0.20703125-0.38818359375z M91.30861328125,61.4765625l0-0.75048828125q0-0.931640625,0.0517578125-1.759765625q0.0517578125-1.16455078125,0.0517578125-1.9150390625q0-0.4140625,0.0517578125-0.944580078125t0.2587890625-0.841064453125q0.2587890625-0.2587890625,0.608154296875-0.530517578125t0.763427734375-0.271728515625q1.31982421875,0,2.0703125,0.297607421875t0.80224609375,1.229248046875l0.103515625,0.80224609375q0.4658203125-1.11279296875,1.2421875-2.756103515625t1.798583984375-3.13134765625t2.30322265625-2.5361328125t2.704345703125-1.048095703125q1.31982421875,0,2.173828125,1.2421875t1.358642578125,3.170166015625t0.711669921875,4.2958984375t0.28466796875,4.645263671875t0.103515625,4.153564453125t0.18115234375,2.833740234375q0.103515625,0.80224609375,0.349365234375,1.695068359375t0.245849609375,1.643310546875q0,0.20703125-0.297607421875,0.401123046875t-0.634033203125,0.323486328125t-0.685791015625,0.20703125t-0.504638671875,0.07763671875q-1.00927734375,0-1.436279296875-1.513916015625t-0.530517578125-3.791259765625t-0.103515625-4.929931640625t-0.18115234375-4.929931640625t-0.737548828125-3.791259765625t-1.772705078125-1.565673828125q-1.11279296875,0-2.30322265625,1.436279296875t-2.04443359375,3.817138671875q-0.828125,2.380859375-1.138671875,5.40869140625q-0.103515625,0.95751953125-0.103515625,1.9150390625q0,2.09619140625,0.43994140625,4.1923828125q0.0517578125,0.3623046875-0.297607421875,0.54345703125t-0.866943359375,0.28466796875t-1.048095703125,0.12939453125t-0.815185546875,0.02587890625q-1.00927734375,0-1.617431640625-0.711669921875t-0.944580078125-1.824462890625t-0.452880859375-2.497314453125t-0.142333984375-2.730224609375z M114.82399902344,62.408203125q0-1.8115234375,0.401123046875-4.27001953125t1.358642578125-4.658203125t2.523193359375-3.739501953125t3.946533203125-1.539794921875q2.2255859375,0,3.33837890625,1.281005859375t1.11279296875,3.454833984375q0,1.42333984375-0.530517578125,3.118408203125t-1.513916015625,3.208984375t-2.3291015625,2.523193359375t-3.001953125,1.00927734375l-0.6728515625-0.0517578125q0,0.69873046875,0.20703125,1.876220703125t0.608154296875,2.342041015625t1.03515625,2.04443359375t1.539794921875,0.8798828125q1.31982421875,0,2.5361328125-1.06103515625t2.30322265625-2.35498046875t2.0185546875-2.35498046875t1.7080078125-1.06103515625q0.4140625,0,0.85400390625,0.12939453125t0.49169921875,0.724609375q0,0.3623046875-0.194091796875,0.59521484375t-0.349365234375,0.517578125q-0.80224609375,1.37158203125-1.746826171875,2.61376953125t-2.135009765625,2.25146484375t-2.600830078125,1.591552734375t-3.118408203125,0.582275390625q-2.2255859375,0-3.70068359375-0.789306640625t-2.380859375-2.1220703125t-1.306884765625-3.07958984375t-0.401123046875-3.661865234375z M119.45632324219,60.44140625l0.724609375,0.64697265625q0.517578125,0.4658203125,1.03515625,0.20703125t0.931640625-0.944580078125t0.763427734375-1.695068359375t0.62109375-2.0703125t0.401123046875-2.0703125t0.12939453125-1.68212890625l0-0.8798828125t-0.07763671875-0.931640625t-0.271728515625-0.737548828125t-0.608154296875-0.375244140625q-0.12939453125-0.02587890625-0.23291015625-0.02587890625q-0.8798828125,0-1.5009765625,1.11279296875q-0.6728515625,1.2421875-1.0869140625,3.014892578125t-0.59521484375,3.635986328125t-0.23291015625,2.794921875z M146.53445800781,54.67041015625q0-1.06103515625,0.62109375-1.824462890625t1.513916015625-1.2421875t1.953857421875-0.711669921875t1.966796875-0.23291015625q0.69873046875,0,1.86328125,0.20703125t2.27734375,0.62109375t1.927978515625,1.0869140625t0.815185546875,1.57861328125q0,0.4140625-0.310546875,0.737548828125t-0.64697265625,0.323486328125q-0.69873046875,0-1.26806640625-0.452880859375t-1.177490234375-0.95751953125t-1.332763671875-0.95751953125t-1.63037109375-0.452880859375t-1.643310546875,0.582275390625t-0.737548828125,1.539794921875q0,1.57861328125,1.11279296875,3.092529296875t2.445556640625,3.18310546875t2.445556640625,3.506591796875t1.11279296875,4.06298828125q0,0.95751953125-0.401123046875,1.617431640625t-1.06103515625,1.073974609375t-1.488037109375,0.634033203125t-1.6044921875,0.219970703125q-0.85400390625,0-1.99267578125-0.401123046875t-2.14794921875-1.06103515625t-1.695068359375-1.539794921875t-0.685791015625-1.83740234375q0-0.4658203125,0.659912109375-0.59521484375t0.970458984375-0.12939453125q0.1552734375,0,0.478759765625,0.103515625t0.634033203125,0.23291015625t0.556396484375,0.28466796875t0.194091796875,0.33642578125q0.2587890625,0.310546875,0.789306640625,0.918701171875t1.06103515625,0.9833984375t0.931640625,0.271728515625t0.401123046875-1.16455078125q0-2.0185546875-1.0869140625-3.713623046875t-2.367919921875-3.3125t-2.367919921875-3.208984375t-1.0869140625-3.403076171875z M164.770546875,64.16796875l0-2.4326171875q0-1.31982421875,0.064697265625-3.739501953125t0.168212890625-5.30517578125t0.28466796875-6.016845703125t0.4140625-5.913330078125t0.556396484375-4.981689453125t0.737548828125-3.2607421875q0.2587890625-0.59521484375,0.85400390625-0.75048828125t1.16455078125-0.1552734375q0.90576171875,0,1.591552734375,0.401123046875t0.685791015625,1.462158203125l-0.4658203125,0.517578125q-0.90576171875,5.97802734375-1.16455078125,12.0078125t-0.3623046875,12.0595703125q0.64697265625-1.00927734375,1.462158203125-1.979736328125t1.8115234375-1.720947265625t2.14794921875-1.203369140625t2.523193359375-0.452880859375q1.759765625,0,2.911376953125,1.06103515625t1.902099609375,2.756103515625t1.11279296875,3.791259765625t0.556396484375,4.1923828125t0.271728515625,3.972412109375t0.23291015625,3.118408203125q-0.49169921875,0.6728515625-1.44921875,0.6728515625l-0.07763671875,0q-0.4140625,0-0.90576171875-0.103515625t-0.64697265625-0.517578125l0.0517578125,0.0517578125q-0.3623046875-0.80224609375-0.49169921875-2.316162109375t-0.20703125-3.33837890625t-0.271728515625-3.739501953125t-0.582275390625-3.4677734375t-1.138671875-2.56201171875t-2.0185546875-1.06103515625l-0.1552734375,0q-1.52685546875,0-2.56201171875,0.931640625q-1.0869140625,0.9833984375-1.759765625,2.587890625t-1.03515625,3.5712890625t-0.556396484375,3.791259765625t-0.297607421875,3.3125t-0.2587890625,2.186767578125q-0.1552734375,0.59521484375-0.918701171875,0.789306640625t-1.306884765625,0.194091796875q-1.26806640625,0-2.0703125-0.724609375q-0.59521484375-1.42333984375-0.69873046875-3.54541015625t-0.103515625-4.140625z M189.01054199219,61.8388671875q0-1.47509765625,0.375244140625-3.040771484375t1.1904296875-2.82080078125t2.057373046875-2.04443359375t3.001953125-0.789306640625q1.31982421875,0,2.781982421875,0.452880859375t2.678466796875,1.2939453125t1.979736328125,2.057373046875t0.763427734375,2.71728515625q0,1.8115234375-0.659912109375,3.44189453125t-1.850341796875,2.911376953125t-2.781982421875,2.0185546875t-3.454833984375,0.737548828125q-1.52685546875,0-2.66552734375-0.556396484375t-1.902099609375-1.488037109375t-1.138671875-2.19970703125t-0.375244140625-2.69140625z M192.81474121094,61.787109375q0,0.4658203125,0.142333984375,1.37158203125t0.427001953125,1.772705078125t0.737548828125,1.5009765625t1.099853515625,0.582275390625q1.37158203125-0.1552734375,2.264404296875-0.892822265625t1.44921875-1.798583984375t0.7763671875-2.30322265625t0.219970703125-2.35498046875q0-1.42333984375-0.556396484375-2.380859375t-1.824462890625-1.552734375q0,0.0517578125,0.0517578125,0.0517578125t0.0517578125-0.0517578125l-0.64697265625-0.1552734375q-0.2587890625-0.103515625-0.634033203125-0.23291015625t-0.737548828125-0.5693359375q-1.00927734375,0.3623046875-1.565673828125,0.931640625t-0.841064453125,1.384521484375t-0.349365234375,1.953857421875t-0.064697265625,2.7431640625z M208.61821289063,51.97900390625q0-1.21630859375,0.478759765625-1.798583984375t1.746826171875-0.582275390625q0.75048828125,0,1.410400390625,0.310546875t0.659912109375,1.31982421875q0.103515625,1.47509765625,0.103515625,3.092529296875t0.28466796875,3.066650390625q0.64697265625-1.06103515625,1.462158203125-2.1220703125t1.798583984375-1.88916015625t2.14794921875-1.332763671875t2.5361328125-0.504638671875q1.86328125,0,3.1572265625,0.7763671875t2.135009765625,2.0185546875t1.21630859375,2.807861328125t0.375244140625,3.144287109375q0,2.4326171875-0.737548828125,3.972412109375t-1.953857421875,2.419677734375t-2.756103515625,1.1904296875t-3.092529296875,0.310546875q-1.37158203125,0-2.56201171875-0.530517578125t-1.65625-2.005615234375q0-0.4140625,0.608154296875-0.517578125t0.866943359375-0.103515625q0.85400390625,0,1.26806640625,0.4658203125q0.310546875,0.3623046875,0.685791015625,0.737548828125t0.789306640625,0.375244140625q0.80224609375,0,1.68212890625-0.452880859375t1.617431640625-1.1904296875t1.2421875-1.746826171875t0.504638671875-2.0703125q0-0.90576171875-0.1552734375-2.25146484375t-0.530517578125-2.587890625t-1.03515625-2.14794921875t-1.669189453125-0.90576171875q-1.52685546875,0-2.756103515625,1.3974609375t-2.04443359375,3.3642578125t-1.26806640625,4.0888671875t-0.452880859375,3.54541015625t0.18115234375,3.59716796875t0.375244140625,4.515869140625t0.375244140625,4.515869140625t0.18115234375,3.59716796875q0,0.3623046875-0.297607421875,0.582275390625t-0.711669921875,0.349365234375t-0.841064453125,0.1552734375t-0.634033203125,0.02587890625q-0.69873046875,0-1.462158203125-0.1552734375t-1.048095703125-0.95751953125q-0.3623046875-1.26806640625-0.6728515625-3.610107421875t-0.556396484375-5.17578125t-0.427001953125-5.9521484375t-0.310546875-6.016845703125t-0.194091796875-5.30517578125t-0.064697265625-3.830078125z M233.42754394531,51.97900390625q0-1.21630859375,0.478759765625-1.798583984375t1.746826171875-0.582275390625q0.75048828125,0,1.410400390625,0.310546875t0.659912109375,1.31982421875q0.103515625,1.47509765625,0.103515625,3.092529296875t0.28466796875,3.066650390625q0.64697265625-1.06103515625,1.462158203125-2.1220703125t1.798583984375-1.88916015625t2.14794921875-1.332763671875t2.5361328125-0.504638671875q1.86328125,0,3.1572265625,0.7763671875t2.135009765625,2.0185546875t1.21630859375,2.807861328125t0.375244140625,3.144287109375q0,2.4326171875-0.737548828125,3.972412109375t-1.953857421875,2.419677734375t-2.756103515625,1.1904296875t-3.092529296875,0.310546875q-1.37158203125,0-2.56201171875-0.530517578125t-1.65625-2.005615234375q0-0.4140625,0.608154296875-0.517578125t0.866943359375-0.103515625q0.85400390625,0,1.26806640625,0.4658203125q0.310546875,0.3623046875,0.685791015625,0.737548828125t0.789306640625,0.375244140625q0.80224609375,0,1.68212890625-0.452880859375t1.617431640625-1.1904296875t1.2421875-1.746826171875t0.504638671875-2.0703125q0-0.90576171875-0.1552734375-2.25146484375t-0.530517578125-2.587890625t-1.03515625-2.14794921875t-1.669189453125-0.90576171875q-1.52685546875,0-2.756103515625,1.3974609375t-2.04443359375,3.3642578125t-1.26806640625,4.0888671875t-0.452880859375,3.54541015625t0.18115234375,3.59716796875t0.375244140625,4.515869140625t0.375244140625,4.515869140625t0.18115234375,3.59716796875q0,0.3623046875-0.297607421875,0.582275390625t-0.711669921875,0.349365234375t-0.841064453125,0.1552734375t-0.634033203125,0.02587890625q-0.69873046875,0-1.462158203125-0.1552734375t-1.048095703125-0.95751953125q-0.3623046875-1.26806640625-0.6728515625-3.610107421875t-0.556396484375-5.17578125t-0.427001953125-5.9521484375t-0.310546875-6.016845703125t-0.194091796875-5.30517578125t-0.064697265625-3.830078125z M258.236875,60.72607421875q0-2.380859375,0.556396484375-4.671142578125t0.944580078125-4.567626953125q0.103515625-0.59521484375,0.815185546875-0.737548828125t1.203369140625-0.142333984375q0.85400390625,0,1.37158203125,0.2587890625q0.20703125,0.103515625,0.38818359375,0.23291015625t0.18115234375,0.33642578125q0,2.2255859375-0.530517578125,4.34765625t-0.530517578125,4.5029296875q0,0.80224609375,0.116455078125,1.513916015625t0.219970703125,1.410400390625l0.1552734375,0.75048828125q0,0.20703125,0.02587890625,0.3623046875t0.07763671875,0.3623046875q0,0.4658203125-0.659912109375,0.634033203125t-1.151611328125,0.168212890625q-0.75048828125,0-1.384521484375-0.297607421875t-0.996337890625-1.022216796875l-0.3623046875-0.75048828125q-0.310546875-0.59521484375-0.310546875-1.332763671875t-0.12939453125-1.358642578125z M259.893125,45.14697265625l0-0.49169921875q0-1.21630859375,0.608154296875-2.173828125t1.824462890625-0.95751953125q0.1552734375,0,0.297607421875,0.02587890625t0.297607421875,0.02587890625q0.310546875,0.0517578125,0.815185546875,0.245849609375t0.504638671875,0.608154296875l0,0.0517578125q-0.103515625,0.20703125-0.12939453125,0.427001953125t-0.12939453125,0.375244140625l0.0517578125-0.0517578125q-0.310546875,0.80224609375-0.504638671875,1.2939453125t-0.427001953125,0.789306640625t-0.582275390625,0.427001953125t-0.996337890625,0.12939453125q-0.103515625,0-0.3623046875-0.02587890625t-0.556396484375-0.103515625t-0.504638671875-0.20703125t-0.20703125-0.38818359375z M269.56329589844,61.4765625l0-0.75048828125q0-0.931640625,0.0517578125-1.759765625q0.0517578125-1.16455078125,0.0517578125-1.9150390625q0-0.4140625,0.0517578125-0.944580078125t0.2587890625-0.841064453125q0.2587890625-0.2587890625,0.608154296875-0.530517578125t0.763427734375-0.271728515625q1.31982421875,0,2.0703125,0.297607421875t0.80224609375,1.229248046875l0.103515625,0.80224609375q0.4658203125-1.11279296875,1.2421875-2.756103515625t1.798583984375-3.13134765625t2.30322265625-2.5361328125t2.704345703125-1.048095703125q1.31982421875,0,2.173828125,1.2421875t1.358642578125,3.170166015625t0.711669921875,4.2958984375t0.28466796875,4.645263671875t0.103515625,4.153564453125t0.18115234375,2.833740234375q0.103515625,0.80224609375,0.349365234375,1.695068359375t0.245849609375,1.643310546875q0,0.20703125-0.297607421875,0.401123046875t-0.634033203125,0.323486328125t-0.685791015625,0.20703125t-0.504638671875,0.07763671875q-1.00927734375,0-1.436279296875-1.513916015625t-0.530517578125-3.791259765625t-0.103515625-4.929931640625t-0.18115234375-4.929931640625t-0.737548828125-3.791259765625t-1.772705078125-1.565673828125q-1.11279296875,0-2.30322265625,1.436279296875t-2.04443359375,3.817138671875q-0.828125,2.380859375-1.138671875,5.40869140625q-0.103515625,0.95751953125-0.103515625,1.9150390625q0,2.09619140625,0.43994140625,4.1923828125q0.0517578125,0.3623046875-0.297607421875,0.54345703125t-0.866943359375,0.28466796875t-1.048095703125,0.12939453125t-0.815185546875,0.02587890625q-1.00927734375,0-1.617431640625-0.711669921875t-0.944580078125-1.824462890625t-0.452880859375-2.497314453125t-0.142333984375-2.730224609375z M293.07868164063,60.44140625q0-1.42333984375,0.271728515625-3.040771484375t0.931640625-2.963134765625t1.824462890625-2.2255859375t2.97607421875-0.8798828125q1.21630859375,0,2.35498046875,0.401123046875t2.14794921875,1.099853515625q0.310546875-0.517578125,0.9833984375-0.634033203125t1.1904296875-0.116455078125q0.20703125,0,0.582275390625,0.02587890625t0.737548828125,0.1552734375t0.634033203125,0.310546875t0.323486328125,0.517578125q0.20703125,1.8115234375,0.28466796875,3.610107421875t0.23291015625,3.584228515625q0.2587890625,3.33837890625,0.80224609375,6.59912109375t0.54345703125,6.59912109375q0,1.57861328125-0.142333984375,3.416015625t-0.75048828125,3.403076171875t-1.772705078125,2.600830078125t-3.23486328125,1.03515625q-1.86328125,0-2.859619140625-0.659912109375t-1.798583984375-2.212646484375q0.0517578125-0.517578125,0.659912109375-0.685791015625t1.048095703125-0.168212890625q0.4140625,0,0.841064453125,0.07763671875t0.685791015625,0.2587890625l0.64697265625,0.4140625q0.95751953125-1.966796875,1.16455078125-4.2958984375t0.20703125-4.5029296875q0-1.8115234375-0.18115234375-3.584228515625t-0.3623046875-3.558349609375q-1.8115234375,3.28662109375-5.51220703125,3.28662109375q-1.7080078125,0-2.781982421875-0.724609375t-1.65625-1.83740234375t-0.80224609375-2.51025390625t-0.219970703125-2.794921875z M296.26178710938,60.67431640625q0,0.64697265625,0.0517578125,1.669189453125t0.271728515625,2.005615234375t0.634033203125,1.695068359375t1.16455078125,0.711669921875q1.42333984375,0,2.25146484375-1.11279296875t1.306884765625-2.652587890625t0.763427734375-3.18310546875t0.724609375-2.704345703125q-0.0517578125-0.3623046875-0.0517578125-0.711669921875l0-0.711669921875q-0.59521484375-1.11279296875-1.73388671875-1.927978515625t-2.35498046875-1.099853515625q-0.1552734375-0.02587890625-0.28466796875-0.02587890625q-0.724609375,0-1.1904296875,0.85400390625q-0.59521484375,1.03515625-0.931640625,2.471435546875t-0.478759765625,2.833740234375t-0.142333984375,1.88916015625z"/><path fill="#" d="M319.48615722656,39.2021484375q-0.0341796875-0.4169921875,0.0546875-0.724609375t0.35546875-0.505859375t0.8544921875-0.1982421875l2.201171875,0q0.451171875,0,1.1826171875,0.0478515625t1.572265625,0.1435546875t1.6748046875,0.2939453125t1.5244140625,0.4921875t1.12109375,0.724609375t0.4306640625,1.0185546875q0,0.833984375-0.4853515625,1.5654296875t-1.216796875,1.3193359375t-1.544921875,1.0458984375t-1.4560546875,0.8271484375q2.54296875,0.560546875,3.978515625,2.32421875t1.435546875,4.40234375q0,1.39453125-0.533203125,2.7548828125t-1.4560546875,2.4541015625t-2.1875,1.763671875t-2.7138671875,0.669921875q-0.19140625,0-0.4306640625-0.041015625t-0.4375-0.1298828125t-0.341796875-0.2529296875t-0.1435546875-0.423828125q0-1.203125,1.298828125-1.203125q0.21875,0,0.5126953125,0.0615234375t0.4580078125,0.2529296875q0.751953125-0.314453125,1.3740234375-0.998046875t1.052734375-1.5244140625t0.669921875-1.763671875t0.2392578125-1.6748046875q0-0.90234375-0.2666015625-1.8388671875t-0.7724609375-1.736328125t-1.244140625-1.3466796875t-1.6953125-0.68359375q-0.24609375-0.02734375-0.5400390625-0.041015625l-0.587890625-0.02734375t-0.57421875-0.08203125t-0.4853515625-0.21875q0.109375,2.26953125,0.2802734375,4.525390625t0.4580078125,4.525390625q0.109375,0.109375,0.150390625,0.3212890625t0.068359375,0.451171875t0.02734375,0.4580078125l0,0.369140625q0,0.24609375-0.1640625,0.4033203125t-0.3896484375,0.2529296875t-0.478515625,0.123046875t-0.4443359375,0.02734375q-0.615234375,0-0.943359375-0.1640625t-0.46484375-0.478515625t-0.177734375-0.7177734375t-0.068359375-0.8818359375q-0.369140625-3.814453125-0.533203125-7.546875t-0.1640625-7.546875q0-0.451171875-0.0341796875-0.8681640625z M322.00861816406,38.62109375q0,1.681640625,0.109375,3.3701171875t0.19140625,3.3701171875q0.615234375-0.369140625,1.61328125-0.8681640625t1.9345703125-1.1005859375t1.6064453125-1.326171875t0.669921875-1.572265625q0-0.669921875-0.79296875-1.0185546875t-1.845703125-0.51953125t-2.0576171875-0.2119140625t-1.4287109375-0.123046875z M333.39277832031,52.197265625q0-0.2734375,0.0615234375-0.724609375t0.1435546875-0.8955078125t0.19140625-0.8271484375t0.259765625-0.4921875q0.109375-0.109375,0.3759765625-0.21875t0.560546875-0.1572265625t0.546875,0.041015625t0.3076171875,0.3623046875q-0.19140625,0.24609375-0.3486328125,0.8408203125t-0.2392578125,1.3193359375q-0.068359375,0.615234375-0.068359375,1.271484375l0,0.232421875q0.013671875,0.765625,0.13671875,1.408203125t0.3759765625,1.0595703125t0.7041015625,0.4169921875q0.95703125,0,1.75-0.8818359375t1.408203125-2.1533203125t1.080078125-2.7001953125t0.79296875-2.4951171875q0.08203125-0.314453125,0.3896484375-0.423828125t0.6630859375-0.0751953125t0.6357421875,0.1708984375t0.3349609375,0.328125q-0.2734375,2.296875-0.4306640625,4.59375t-0.1572265625,4.62109375q0,0.451171875,0.041015625,0.8271484375t-0.041015625,0.642578125t-0.3623046875,0.423828125t-0.8955078125,0.1572265625q-0.13671875,0-0.3486328125-0.02734375t-0.4375-0.0888671875t-0.3828125-0.1845703125t-0.1572265625-0.287109375q0-1.01171875,0.0751953125-2.078125t0.2119140625-2.064453125q-0.369140625,0.533203125-0.8134765625,1.0595703125t-0.9775390625,0.9501953125t-1.1484375,0.6767578125t-1.326171875,0.2529296875q-1.01171875,0-1.5927734375-0.478515625t-0.875-1.1962890625t-0.369140625-1.5654296875t-0.0751953125-1.640625z M346.25350097656,50.3515625q0-0.396484375,0.2255859375-0.51953125t0.5673828125-0.123046875q0.560546875,0,0.8544921875,0.2119140625t0.2939453125,0.7451171875q0,0.642578125,0.095703125,1.6064453125t0.2802734375,1.873046875t0.4375,1.5654296875t0.5263671875,0.65625q0.505859375,0,0.8955078125-0.779296875t0.68359375-1.9140625t0.505859375-2.4404296875t0.2939453125-2.3310546875q0.0546875-0.560546875,0.2666015625-0.8134765625t0.7724609375-0.2529296875q0.642578125,0,0.9365234375,0.533203125t0.3759765625,1.3125q0.068359375,0.669921875,0.068359375,1.39453125l0,0.232421875l0,0.546875q0,0.51953125,0.013671875,0.9296875l0.396484375,8.380859375l0.0546875,1.39453125q0.02734375,0.19140625,0.041015625,0.3623046875t0.013671875,0.3623046875q0,0.779296875-0.3349609375,1.0048828125t-1.0869140625,0.2255859375q-0.1640625,0-0.4169921875-0.02734375t-0.4921875-0.109375t-0.41015625-0.2255859375t-0.1708984375-0.3623046875l0.0546875-0.13671875q0.068359375-0.8203125,0.068359375-1.72265625l0-0.287109375q-0.013671875-1.06640625-0.068359375-2.16015625t-0.123046875-2.1875t-0.068359375-2.10546875q-0.19140625,0.423828125-0.4443359375,0.875t-0.587890625,0.8134765625t-0.7587890625,0.6015625t-0.95703125,0.2392578125q-0.779296875,0-1.28515625-0.41015625t-0.7861328125-1.06640625t-0.4033203125-1.4697265625t-0.1640625-1.626953125t-0.0546875-1.5517578125t-0.109375-1.244140625z M362.97885253906,52.921875q0-0.751953125,0.1435546875-1.6064453125t0.4921875-1.5654296875t0.9638671875-1.17578125t1.572265625-0.46484375q0.642578125,0,1.244140625,0.2119140625t1.134765625,0.5810546875q0.1640625-0.2734375,0.51953125-0.3349609375t0.62890625-0.0615234375q0.109375,0,0.3076171875,0.013671875t0.3896484375,0.08203125t0.3349609375,0.1640625t0.1708984375,0.2734375q0.109375,0.95703125,0.150390625,1.9072265625t0.123046875,1.8935546875q0.13671875,1.763671875,0.423828125,3.486328125t0.287109375,3.486328125q0,0.833984375-0.0751953125,1.8046875t-0.396484375,1.7978515625t-0.9365234375,1.3740234375t-1.708984375,0.546875q-0.984375,0-1.5107421875-0.3486328125t-0.9501953125-1.1689453125q0.02734375-0.2734375,0.3486328125-0.3623046875t0.5537109375-0.0888671875q0.21875,0,0.4443359375,0.041015625t0.3623046875,0.13671875l0.341796875,0.21875q0.505859375-1.0390625,0.615234375-2.26953125t0.109375-2.37890625q0-0.95703125-0.095703125-1.8935546875t-0.19140625-1.8798828125q-0.95703125,1.736328125-2.912109375,1.736328125q-0.90234375,0-1.4697265625-0.3828125t-0.875-0.970703125t-0.423828125-1.326171875t-0.1162109375-1.4765625z M364.66049316406,53.044921875q0,0.341796875,0.02734375,0.8818359375t0.1435546875,1.0595703125t0.3349609375,0.8955078125t0.615234375,0.3759765625q0.751953125,0,1.189453125-0.587890625t0.6904296875-1.4013671875t0.4033203125-1.681640625t0.3828125-1.4287109375q-0.02734375-0.19140625-0.02734375-0.3759765625l0-0.3759765625q-0.314453125-0.587890625-0.916015625-1.0185546875t-1.244140625-0.5810546875q-0.08203125-0.013671875-0.150390625-0.013671875q-0.3828125,0-0.62890625,0.451171875q-0.314453125,0.546875-0.4921875,1.3056640625t-0.2529296875,1.4970703125t-0.0751953125,0.998046875z M374.39035644531,53.66015625q0-0.779296875,0.1982421875-1.6064453125t0.62890625-1.490234375t1.0869140625-1.080078125t1.5859375-0.4169921875q0.697265625,0,1.4697265625,0.2392578125t1.4150390625,0.68359375t1.0458984375,1.0869140625t0.4033203125,1.435546875q0,0.95703125-0.3486328125,1.818359375t-0.9775390625,1.5380859375t-1.4697265625,1.06640625t-1.8251953125,0.3896484375q-0.806640625,0-1.408203125-0.2939453125t-1.0048828125-0.7861328125t-0.6015625-1.162109375t-0.1982421875-1.421875z M376.40012207031,53.6328125q0,0.24609375,0.0751953125,0.724609375t0.2255859375,0.9365234375t0.3896484375,0.79296875t0.5810546875,0.3076171875q0.724609375-0.08203125,1.1962890625-0.4716796875t0.765625-0.9501953125t0.41015625-1.216796875t0.1162109375-1.244140625q0-0.751953125-0.2939453125-1.2578125t-0.9638671875-0.8203125q0,0.02734375,0.02734375,0.02734375t0.02734375-0.02734375l-0.341796875-0.08203125q-0.13671875-0.0546875-0.3349609375-0.123046875t-0.3896484375-0.30078125q-0.533203125,0.19140625-0.8271484375,0.4921875t-0.4443359375,0.7314453125t-0.1845703125,1.0322265625t-0.0341796875,1.44921875z M384.47568847656,53.66015625q0-0.779296875,0.1982421875-1.6064453125t0.62890625-1.490234375t1.0869140625-1.080078125t1.5859375-0.4169921875q0.697265625,0,1.4697265625,0.2392578125t1.4150390625,0.68359375t1.0458984375,1.0869140625t0.4033203125,1.435546875q0,0.95703125-0.3486328125,1.818359375t-0.9775390625,1.5380859375t-1.4697265625,1.06640625t-1.8251953125,0.3896484375q-0.806640625,0-1.408203125-0.2939453125t-1.0048828125-0.7861328125t-0.6015625-1.162109375t-0.1982421875-1.421875z M386.48545410156,53.6328125q0,0.24609375,0.0751953125,0.724609375t0.2255859375,0.9365234375t0.3896484375,0.79296875t0.5810546875,0.3076171875q0.724609375-0.08203125,1.1962890625-0.4716796875t0.765625-0.9501953125t0.41015625-1.216796875t0.1162109375-1.244140625q0-0.751953125-0.2939453125-1.2578125t-0.9638671875-0.8203125q0,0.02734375,0.02734375,0.02734375t0.02734375-0.02734375l-0.341796875-0.08203125q-0.13671875-0.0546875-0.3349609375-0.123046875t-0.3896484375-0.30078125q-0.533203125,0.19140625-0.8271484375,0.4921875t-0.4443359375,0.7314453125t-0.1845703125,1.0322265625t-0.0341796875,1.44921875z M394.83445800781,53.236328125q0-1.06640625,0.2255859375-1.9345703125t0.7177734375-1.4697265625t1.2919921875-0.9365234375t1.9482421875-0.3349609375q0.642578125,0,1.3125,0.1708984375t1.1484375,0.6357421875q0-0.2734375,0.0546875-1.1279296875t0.13671875-1.9892578125t0.1708984375-2.37890625t0.1572265625-2.310546875t0.123046875-1.791015625t0.08203125-0.8203125q0.13671875-0.396484375,0.505859375-0.4716796875t0.697265625-0.0751953125q0.861328125,0,1.0595703125,0.2734375t0.1982421875,1.09375q0,2.994140625-0.2666015625,5.9609375t-0.2666015625,5.9609375q0,1.927734375,0.0751953125,3.8759765625t0.5400390625,3.8349609375l0.150390625,0.13671875l0.08203125,0.24609375l-0.205078125,0.314453125q-0.51953125,0.328125-1.203125,0.328125l-0.0546875,0q-0.697265625,0-1.28515625-0.328125q-0.21875-0.13671875-0.3623046875-0.8134765625t-0.2255859375-1.490234375t-0.123046875-1.5654296875t-0.068359375-1.06640625q-0.478515625,1.09375-1.3056640625,1.8798828125t-2.0849609375,0.7861328125q-0.984375,0-1.61328125-0.423828125t-0.9775390625-1.080078125t-0.4921875-1.4697265625t-0.1435546875-1.6201171875z M396.48875488281,53.318359375q0,0.314453125,0.0751953125,0.9296875t0.2392578125,1.23046875t0.4580078125,1.09375t0.7724609375,0.478515625q0.642578125-0.314453125,1.162109375-1.0458984375t0.8955078125-1.61328125t0.587890625-1.763671875t0.2119140625-1.5244140625q0-0.806640625-0.587890625-1.33984375t-1.408203125-0.533203125q-0.24609375,0-0.4990234375,0.095703125t-0.4716796875,0.21875q-0.505859375,0.478515625-0.7861328125,0.8681640625t-0.423828125,0.806640625t-0.1845703125,0.9228515625t-0.041015625,1.17578125z M407.77721191406,49.873046875q0-0.560546875,0.328125-0.9638671875t0.7998046875-0.65625t1.0322265625-0.3759765625t1.0390625-0.123046875q0.369140625,0,0.984375,0.109375t1.203125,0.328125t1.0185546875,0.57421875t0.4306640625,0.833984375q0,0.21875-0.1640625,0.3896484375t-0.341796875,0.1708984375q-0.369140625,0-0.669921875-0.2392578125t-0.6220703125-0.505859375t-0.7041015625-0.505859375t-0.861328125-0.2392578125t-0.8681640625,0.3076171875t-0.3896484375,0.8134765625q0,0.833984375,0.587890625,1.6337890625t1.2919921875,1.681640625t1.2919921875,1.8525390625t0.587890625,2.146484375q0,0.505859375-0.2119140625,0.8544921875t-0.560546875,0.5673828125t-0.7861328125,0.3349609375t-0.84765625,0.1162109375q-0.451171875,0-1.052734375-0.2119140625t-1.134765625-0.560546875t-0.8955078125-0.8134765625t-0.3623046875-0.970703125q0-0.24609375,0.3486328125-0.314453125t0.5126953125-0.068359375q0.08203125,0,0.2529296875,0.0546875t0.3349609375,0.123046875t0.2939453125,0.150390625t0.1025390625,0.177734375q0.13671875,0.1640625,0.4169921875,0.4853515625t0.560546875,0.51953125t0.4921875,0.1435546875t0.2119140625-0.615234375q0-1.06640625-0.57421875-1.9619140625t-1.2509765625-1.75t-1.2509765625-1.6953125t-0.57421875-1.7978515625z"/></svg>
