<?xml version="1.0"?>
<svg version="1.1" xmlns="http://www.w3.org/2000/svg" width="604" height="53" style=""><path fill="#4681ab" d="M21.75,23.975l-3.825,0l-0.95,0l-0.625,0l0,17.525l0.625,0l0.95,0l3.825,0q3.65,0,6.25-2.55q2.675-2.625,2.675-6.375q0-3.55-2.675-6.1q-2.625-2.5-6.25-2.5z M21.75,39.925l-3.825,0l0-14.325l3.825,0q3.125,0,5.25,2.05q2.1,2.05,2.1,4.925q0,3.125-2.1,5.225q-2.125,2.125-5.25,2.125z M48.196,23.975l-1.575,0l0,10.675q0,2.3-1.6,3.85q-1.575,1.5-3.75,1.5q-2.375,0-3.825-1.5q-1.475-1.525-1.475-3.85l0-10.675l-1.6,0l0,10.675q0,2.85,1.95,4.85q1.975,2.05,4.95,2.05q2.775,0,4.875-2.05q2.05-2,2.05-4.85l0-10.675z M52.017,41.45l1.55,0l0-10.575q0-2.1,1.6-3.7t3.7-1.6q2.05,0,3.7,1.6q1.575,1.575,1.575,3.7l0,10.575l1.6,0l0-10.575q0-2.15,1.6-3.7q1.6-1.6,3.675-1.6q2.1,0,3.7,1.6t1.6,3.7l0,10.575l1.55,0l0-10.575q0-2.85-2-4.85t-4.85-2q-1.875,0-3.525,1.025q-1.675,1.05-2.4,2.675q-0.975-1.675-2.625-2.675q-1.725-1.025-3.6-1.025q-2.825,0-4.825,2q-2.025,2.025-2.025,4.85l0,10.575z M81.763,41.45l1.55,0l0-10.575q0-2.1,1.6-3.7t3.7-1.6q2.05,0,3.7,1.6q1.575,1.575,1.575,3.7l0,10.575l1.6,0l0-10.575q0-2.15,1.6-3.7q1.6-1.6,3.675-1.6q2.1,0,3.7,1.6t1.6,3.7l0,10.575l1.55,0l0-10.575q0-2.85-2-4.85t-4.85-2q-1.875,0-3.525,1.025q-1.675,1.05-2.4,2.675q-0.975-1.675-2.625-2.675q-1.725-1.025-3.6-1.025q-2.825,0-4.825,2q-2.025,2.025-2.025,4.85l0,10.575z M124.734,24l-1.55,0l0,1.85q0,2.3-1.6,3.85q-1.575,1.5-3.75,1.5q-2.325,0-3.825-1.5t-1.5-3.85l0-1.85l-1.55,0l0,1.85q0,2.8,1.7,4.75q1.675,1.975,4.25,2.15l0,8.775l1.575,0l0-8.775q2.625-0.2,4.425-2.15q1.825-1.95,1.825-4.75l0-1.85z M138.126,36.7q0-1.2,0.85-2.175q0.85-1.025,2.05-1.025l0.325,0l4.675,0l0-1.55l-4.675,0l-0.325,0q-1.275-0.25-2.0875-1.1t-0.8125-2.025q0-1.475,0.8625-2.3375t2.3625-0.8625l8.5,0l0-1.575l-8.5,0q-1.925,0-3.35,1.425q-1.425,1.375-1.425,3.35q0,1.25,0.475,2.275t1.4,1.475q-0.925,0.675-1.4,1.775t-0.475,2.35q0,1.95,1.425,3.325q1.45,1.45,3.35,1.45l8.5,0l0-1.65l-8.5,0q-1.5,0-2.3625-0.85t-0.8625-2.275z M166.097,41.5l0-1.575l-4.45,0q-3.1,0-5.2-2.1t-2.1-5.2q0-2.85,2.1-4.9t5.2-2.05l4.45,0l0-1.625l-4.45,0q-3.775,0-6.325,2.5q-2.55,2.475-2.55,6.075q0,3.825,2.55,6.325q2.5,2.55,6.325,2.55l4.45,0z M176.168,24q-2.825,0-4.85,2.025q-2.05,2.05-2.05,4.875l0,3.775q0,2.775,2.05,4.825t4.85,2.05q2.825,0,4.875-2.05q2.025-2.025,2.025-4.825l0-3.775q0-2.85-2.025-4.875t-4.875-2.025z M181.518,30.9l0,3.775q0,2.275-1.6,3.825q-1.575,1.5-3.75,1.5t-3.725-1.5q-1.6-1.55-1.6-3.825l0-3.775q0-2.1,1.6-3.75q1.6-1.6,3.725-1.6q2.1,0,3.75,1.6q1.6,1.65,1.6,3.75z M186.789,41.45l1.55,0l0-10.575q0-2.1,1.6-3.7t3.7-1.6q2.05,0,3.7,1.6q1.575,1.575,1.575,3.7l0,10.575l1.6,0l0-10.575q0-2.15,1.6-3.7q1.6-1.6,3.675-1.6q2.1,0,3.7,1.6t1.6,3.7l0,10.575l1.55,0l0-10.575q0-2.85-2-4.85t-4.85-2q-1.875,0-3.525,1.025q-1.675,1.05-2.4,2.675q-0.975-1.675-2.625-2.675q-1.725-1.025-3.6-1.025q-2.825,0-4.825,2q-2.025,2.025-2.025,4.85l0,10.575z M216.535,41.45l1.55,0l0-10.575q0-2.1,1.6-3.7t3.7-1.6q2.05,0,3.7,1.6q1.575,1.575,1.575,3.7l0,10.575l1.6,0l0-10.575q0-2.15,1.6-3.7q1.6-1.6,3.675-1.6q2.1,0,3.7,1.6t1.6,3.7l0,10.575l1.55,0l0-10.575q0-2.85-2-4.85t-4.85-2q-1.875,0-3.525,1.025q-1.675,1.05-2.4,2.675q-0.975-1.675-2.625-2.675q-1.725-1.025-3.6-1.025q-2.825,0-4.825,2q-2.025,2.025-2.025,4.85l0,10.575z M247.731,36.7q0-1.2,0.85-2.175q0.85-1.025,2.05-1.025l0.325,0l4.675,0l0-1.55l-4.675,0l-0.325,0q-1.275-0.25-2.0875-1.1t-0.8125-2.025q0-1.475,0.8625-2.3375t2.3625-0.8625l8.5,0l0-1.575l-8.5,0q-1.925,0-3.35,1.425q-1.425,1.375-1.425,3.35q0,1.25,0.475,2.275t1.4,1.475q-0.925,0.675-1.4,1.775t-0.475,2.35q0,1.95,1.425,3.325q1.45,1.45,3.35,1.45l8.5,0l0-1.65l-8.5,0q-1.5,0-2.3625-0.85t-0.8625-2.275z M270.227,32.725l1.875,0q1.9,0,3.15-1.25t1.25-3.15q0-1.675-1.25-3q-1.325-1.375-3.15-1.375l-7.825,0l-1.55,0l0,17.55l1.55,0l0-8.775l4.075,0l5.325,8.775l1.875,0z M264.277,31.175l0-5.65l7.825,0q1.15,0,2.025,0.825q0.825,0.825,0.825,1.975q0,1.2-0.825,2.025q-0.875,0.825-2.025,0.825l-7.825,0z M293.148,41.5l0-1.575l-4.45,0q-3.1,0-5.2-2.1t-2.1-5.2q0-2.85,2.1-4.9t5.2-2.05l4.45,0l0-1.625l-4.45,0q-3.775,0-6.325,2.5q-2.55,2.475-2.55,6.075q0,3.825,2.55,6.325q2.5,2.55,6.325,2.55l4.45,0z M297.944,36.7q0-1.2,0.85-2.175q0.85-1.025,2.05-1.025l0.325,0l4.675,0l0-1.55l-4.675,0l-0.325,0q-1.275-0.25-2.0875-1.1t-0.8125-2.025q0-1.475,0.8625-2.3375t2.3625-0.8625l8.5,0l0-1.575l-8.5,0q-1.925,0-3.35,1.425q-1.425,1.375-1.425,3.35q0,1.25,0.475,2.275t1.4,1.475q-0.925,0.675-1.4,1.775t-0.475,2.35q0,1.95,1.425,3.325q1.45,1.45,3.35,1.45l8.5,0l0-1.65l-8.5,0q-1.5,0-2.3625-0.85t-0.8625-2.275z"/><path fill="#" d="M326.35548828125,22.148193359375q-0.028076171875-0.342529296875,0.044921875-0.59521484375t0.2919921875-0.41552734375t0.701904296875-0.162841796875l1.80810546875,0q0.37060546875,0,0.971435546875,0.039306640625t1.29150390625,0.117919921875t1.375732421875,0.241455078125t1.252197265625,0.404296875t0.9208984375,0.59521484375t0.353759765625,0.836669921875q0,0.68505859375-0.398681640625,1.285888671875t-0.99951171875,1.083740234375t-1.26904296875,0.859130859375t-1.196044921875,0.679443359375q2.0888671875,0.46044921875,3.26806640625,1.9091796875t1.17919921875,3.6162109375q0,1.1455078125-0.43798828125,2.262939453125t-1.196044921875,2.015869140625t-1.796875,1.44873046875t-2.229248046875,0.55029296875q-0.1572265625,0-0.353759765625-0.03369140625t-0.359375-0.106689453125t-0.28076171875-0.207763671875t-0.117919921875-0.34814453125q0-0.98828125,1.06689453125-0.98828125q0.1796875,0,0.421142578125,0.050537109375t0.376220703125,0.207763671875q0.61767578125-0.25830078125,1.128662109375-0.81982421875t0.86474609375-1.252197265625t0.55029296875-1.44873046875t0.196533203125-1.375732421875q0-0.7412109375-0.218994140625-1.510498046875t-0.634521484375-1.42626953125t-1.02197265625-1.106201171875t-1.392578125-0.5615234375q-0.2021484375-0.0224609375-0.443603515625-0.03369140625l-0.48291015625-0.0224609375t-0.4716796875-0.0673828125t-0.398681640625-0.1796875q0.08984375,1.8642578125,0.230224609375,3.71728515625t0.376220703125,3.71728515625q0.08984375,0.08984375,0.12353515625,0.263916015625t0.05615234375,0.37060546875t0.0224609375,0.376220703125l0,0.30322265625q0,0.2021484375-0.134765625,0.331298828125t-0.320068359375,0.207763671875t-0.39306640625,0.10107421875t-0.364990234375,0.0224609375q-0.50537109375,0-0.77490234375-0.134765625t-0.3818359375-0.39306640625t-0.14599609375-0.589599609375t-0.05615234375-0.724365234375q-0.30322265625-3.13330078125-0.43798828125-6.19921875t-0.134765625-6.19921875q0-0.37060546875-0.028076171875-0.713134765625z M328.42750976563,21.6708984375q0,1.38134765625,0.08984375,2.768310546875t0.1572265625,2.768310546875q0.50537109375-0.30322265625,1.3251953125-0.713134765625t1.589111328125-0.904052734375t1.319580078125-1.08935546875t0.55029296875-1.29150390625q0-0.55029296875-0.6513671875-0.836669921875t-1.51611328125-0.4267578125t-1.690185546875-0.174072265625t-1.173583984375-0.10107421875z M337.77878417969,32.82275390625q0-0.224609375,0.050537109375-0.59521484375t0.117919921875-0.735595703125t0.1572265625-0.679443359375t0.21337890625-0.404296875q0.08984375-0.08984375,0.308837890625-0.1796875t0.46044921875-0.129150390625t0.44921875,0.03369140625t0.252685546875,0.297607421875q-0.1572265625,0.2021484375-0.286376953125,0.690673828125t-0.196533203125,1.083740234375q-0.05615234375,0.50537109375-0.05615234375,1.04443359375l0,0.19091796875q0.01123046875,0.62890625,0.1123046875,1.15673828125t0.308837890625,0.870361328125t0.578369140625,0.342529296875q0.7861328125,0,1.4375-0.724365234375t1.15673828125-1.768798828125t0.88720703125-2.218017578125t0.6513671875-2.049560546875q0.0673828125-0.25830078125,0.320068359375-0.34814453125t0.544677734375-0.061767578125t0.522216796875,0.140380859375t0.275146484375,0.26953125q-0.224609375,1.88671875-0.353759765625,3.7734375t-0.129150390625,3.7958984375q0,0.37060546875,0.03369140625,0.679443359375t-0.03369140625,0.52783203125t-0.297607421875,0.34814453125t-0.735595703125,0.129150390625q-0.1123046875,0-0.286376953125-0.0224609375t-0.359375-0.072998046875t-0.314453125-0.151611328125t-0.129150390625-0.23583984375q0-0.8310546875,0.061767578125-1.70703125t0.174072265625-1.69580078125q-0.30322265625,0.43798828125-0.668212890625,0.870361328125t-0.802978515625,0.780517578125t-0.943359375,0.555908203125t-1.08935546875,0.207763671875q-0.8310546875,0-1.308349609375-0.39306640625t-0.71875-0.982666015625t-0.30322265625-1.285888671875t-0.061767578125-1.34765625z M348.34294921875,31.306640625q0-0.32568359375,0.185302734375-0.4267578125t0.466064453125-0.10107421875q0.46044921875,0,0.701904296875,0.174072265625t0.241455078125,0.612060546875q0,0.52783203125,0.07861328125,1.319580078125t0.230224609375,1.53857421875t0.359375,1.285888671875t0.432373046875,0.5390625q0.41552734375,0,0.735595703125-0.64013671875t0.5615234375-1.572265625t0.41552734375-2.004638671875t0.241455078125-1.914794921875q0.044921875-0.46044921875,0.218994140625-0.668212890625t0.634521484375-0.207763671875q0.52783203125,0,0.769287109375,0.43798828125t0.308837890625,1.078125q0.05615234375,0.55029296875,0.05615234375,1.1455078125l0,0.19091796875l0,0.44921875q0,0.4267578125,0.01123046875,0.763671875l0.32568359375,6.88427734375l0.044921875,1.1455078125q0.0224609375,0.1572265625,0.03369140625,0.297607421875t0.01123046875,0.297607421875q0,0.64013671875-0.275146484375,0.825439453125t-0.892822265625,0.185302734375q-0.134765625,0-0.342529296875-0.0224609375t-0.404296875-0.08984375t-0.3369140625-0.185302734375t-0.140380859375-0.297607421875l0.044921875-0.1123046875q0.05615234375-0.673828125,0.05615234375-1.4150390625l0-0.23583984375q-0.01123046875-0.8759765625-0.05615234375-1.7744140625t-0.10107421875-1.796875t-0.05615234375-1.7294921875q-0.1572265625,0.34814453125-0.364990234375,0.71875t-0.48291015625,0.668212890625t-0.623291015625,0.494140625t-0.7861328125,0.196533203125q-0.64013671875,0-1.0556640625-0.3369140625t-0.645751953125-0.8759765625t-0.331298828125-1.207275390625t-0.134765625-1.33642578125t-0.044921875-1.274658203125t-0.08984375-1.02197265625z M362.03670898438,24.495361328125q-0.0224609375-0.297607421875,0.050537109375-0.5615234375t0.275146484375-0.43798828125t0.68505859375-0.174072265625q0.1123046875,0,0.275146484375,0.0224609375t0.32568359375,0.072998046875t0.263916015625,0.140380859375t0.10107421875,0.2470703125q0,0.41552734375,0.028076171875,1.094970703125t0.072998046875,1.4150390625t0.084228515625,1.4375t0.072998046875,1.139892578125q0.8759765625-0.044921875,1.76318359375-0.044921875t1.751953125-0.044921875l1.5498046875-0.044921875l0-1.11181640625q0-1.8642578125-0.072998046875-3.734130859375t-0.252685546875-3.734130859375q0-0.134765625,0.1123046875-0.218994140625t0.263916015625-0.129150390625t0.314453125-0.05615234375t0.252685546875-0.01123046875q0.25830078125,0,0.555908203125,0.07861328125t0.342529296875,0.3369140625l0.0673828125,0.48291015625q0.28076171875,2.021484375,0.3818359375,3.998046875t0.14599609375,3.953125q0.134765625,0.0224609375,0.286376953125,0.072998046875t0.308837890625,0.095458984375q0.1123046875,0.044921875,0.320068359375,0.134765625t0.207763671875,0.28076171875q0,0.1796875-0.1572265625,0.28076171875t-0.353759765625,0.151611328125t-0.3818359375,0.061767578125t-0.230224609375,0.01123046875q0.0224609375,0.8310546875,0.0224609375,1.656494140625l0,1.656494140625l0,3.62744140625l0,2.021484375q0,0.134765625-0.129150390625,0.241455078125t-0.308837890625,0.174072265625t-0.376220703125,0.08984375t-0.353759765625,0.0224609375t-0.37060546875-0.0224609375t-0.3818359375-0.08984375t-0.297607421875-0.16845703125t-0.129150390625-0.2470703125l0-0.48291015625q0.044921875-2.1337890625,0.10107421875-4.228271484375t0.1123046875-4.205810546875q-1.22412109375,0.044921875-2.487548828125,0.05615234375t-2.510009765625,0.05615234375q0.134765625,1.58349609375,0.308837890625,3.161376953125t0.364990234375,3.161376953125q0,0.134765625-0.129150390625,0.241455078125t-0.30322265625,0.174072265625t-0.37060546875,0.08984375t-0.353759765625,0.0224609375q-0.32568359375,0-0.713134765625-0.1123046875t-0.432373046875-0.41552734375q-0.134765625-1.1904296875-0.252685546875-2.6279296875t-0.207763671875-2.936767578125t-0.140380859375-2.936767578125t-0.050537109375-2.60546875q0-0.28076171875-0.0224609375-0.578369140625z M374.86942871094,33.81103515625q0-0.763671875,0.207763671875-1.47119140625t0.623291015625-1.263427734375t1.038818359375-0.88720703125t1.443115234375-0.331298828125q0.50537109375,0,1.117431640625,0.151611328125t1.151123046875,0.44921875t0.8984375,0.758056640625t0.359375,1.0556640625q0,0.28076171875-0.095458984375,0.4267578125t-0.387451171875,0.14599609375l-0.12353515625-0.0224609375q0.32568359375,0.8759765625,0.5615234375,1.796875t0.46044921875,1.841796875q0.08984375,0.1796875,0.134765625,0.320068359375t0.044921875,0.275146484375q0,0.1796875-0.10107421875,0.297607421875t-0.263916015625,0.174072265625t-0.3369140625,0.07861328125t-0.308837890625,0.0224609375q-0.48291015625,0-0.724365234375-0.16845703125t-0.34814453125-0.46044921875t-0.129150390625-0.656982421875t-0.08984375-0.735595703125q-0.134765625,0.43798828125-0.353759765625,0.853515625t-0.5166015625,0.746826171875t-0.701904296875,0.52783203125t-0.90966796875,0.196533203125q-0.7412109375,0-1.24658203125-0.4267578125t-0.814208984375-1.050048828125t-0.44921875-1.330810546875t-0.140380859375-1.31396484375z M376.46415527344,33.65380859375q0,0.41552734375,0.05615234375,0.8759765625t0.185302734375,0.90966796875t0.331298828125,0.847900390625t0.50537109375,0.701904296875q0.55029296875-0.59521484375,0.814208984375-1.44873046875t0.4716796875-1.645263671875t0.4716796875-1.35888671875t0.814208984375-0.567138671875q0.34814453125,0,0.583984375,0.12353515625q-0.1123046875-0.28076171875-0.37060546875-0.544677734375t-0.578369140625-0.48291015625t-0.66259765625-0.359375t-0.645751953125-0.140380859375q-0.08984375,0-0.207763671875,0.028076171875t-0.185302734375,0.005615234375q-0.46044921875,0.134765625-0.758056640625,0.466064453125t-0.48291015625,0.780517578125t-0.263916015625,0.9208984375t-0.07861328125,0.88720703125z M384.6025390625,29.74560546875q0-0.52783203125,0.207763671875-0.780517578125t0.758056640625-0.252685546875q0.32568359375,0,0.612060546875,0.134765625t0.286376953125,0.57275390625q0.044921875,0.64013671875,0.044921875,1.342041015625t0.12353515625,1.330810546875q0.28076171875-0.46044921875,0.634521484375-0.9208984375t0.780517578125-0.81982421875t0.93212890625-0.578369140625t1.1005859375-0.218994140625q0.80859375,0,1.3701171875,0.3369140625t0.926513671875,0.8759765625t0.52783203125,1.218505859375t0.162841796875,1.364501953125q0,1.0556640625-0.320068359375,1.723876953125t-0.847900390625,1.050048828125t-1.196044921875,0.5166015625t-1.342041015625,0.134765625q-0.59521484375,0-1.11181640625-0.230224609375t-0.71875-0.870361328125q0-0.1796875,0.263916015625-0.224609375t0.376220703125-0.044921875q0.37060546875,0,0.55029296875,0.2021484375q0.134765625,0.1572265625,0.297607421875,0.320068359375t0.342529296875,0.162841796875q0.34814453125,0,0.72998046875-0.196533203125t0.701904296875-0.5166015625t0.5390625-0.758056640625t0.218994140625-0.8984375q0-0.39306640625-0.0673828125-0.97705078125t-0.230224609375-1.123046875t-0.44921875-0.93212890625t-0.724365234375-0.39306640625q-0.66259765625,0-1.196044921875,0.6064453125t-0.88720703125,1.4599609375t-0.55029296875,1.7744140625t-0.196533203125,1.53857421875t0.07861328125,1.56103515625t0.162841796875,1.959716796875t0.162841796875,1.959716796875t0.07861328125,1.56103515625q0,0.1572265625-0.129150390625,0.252685546875t-0.308837890625,0.151611328125t-0.364990234375,0.0673828125t-0.275146484375,0.01123046875q-0.30322265625,0-0.634521484375-0.0673828125t-0.454833984375-0.41552734375q-0.1572265625-0.55029296875-0.2919921875-1.566650390625t-0.241455078125-2.24609375t-0.185302734375-2.5830078125t-0.134765625-2.611083984375t-0.084228515625-2.30224609375t-0.028076171875-1.662109375z M395.36885253906,29.74560546875q0-0.52783203125,0.207763671875-0.780517578125t0.758056640625-0.252685546875q0.32568359375,0,0.612060546875,0.134765625t0.286376953125,0.57275390625q0.044921875,0.64013671875,0.044921875,1.342041015625t0.12353515625,1.330810546875q0.28076171875-0.46044921875,0.634521484375-0.9208984375t0.780517578125-0.81982421875t0.93212890625-0.578369140625t1.1005859375-0.218994140625q0.80859375,0,1.3701171875,0.3369140625t0.926513671875,0.8759765625t0.52783203125,1.218505859375t0.162841796875,1.364501953125q0,1.0556640625-0.320068359375,1.723876953125t-0.847900390625,1.050048828125t-1.196044921875,0.5166015625t-1.342041015625,0.134765625q-0.59521484375,0-1.11181640625-0.230224609375t-0.71875-0.870361328125q0-0.1796875,0.263916015625-0.224609375t0.376220703125-0.044921875q0.37060546875,0,0.55029296875,0.2021484375q0.134765625,0.1572265625,0.297607421875,0.320068359375t0.342529296875,0.162841796875q0.34814453125,0,0.72998046875-0.196533203125t0.701904296875-0.5166015625t0.5390625-0.758056640625t0.218994140625-0.8984375q0-0.39306640625-0.0673828125-0.97705078125t-0.230224609375-1.123046875t-0.44921875-0.93212890625t-0.724365234375-0.39306640625q-0.66259765625,0-1.196044921875,0.6064453125t-0.88720703125,1.4599609375t-0.55029296875,1.7744140625t-0.196533203125,1.53857421875t0.07861328125,1.56103515625t0.162841796875,1.959716796875t0.162841796875,1.959716796875t0.07861328125,1.56103515625q0,0.1572265625-0.129150390625,0.252685546875t-0.308837890625,0.151611328125t-0.364990234375,0.0673828125t-0.275146484375,0.01123046875q-0.30322265625,0-0.634521484375-0.0673828125t-0.454833984375-0.41552734375q-0.1572265625-0.55029296875-0.2919921875-1.566650390625t-0.241455078125-2.24609375t-0.185302734375-2.5830078125t-0.134765625-2.611083984375t-0.084228515625-2.30224609375t-0.028076171875-1.662109375z M406.13516601563,33.54150390625q0-1.033203125,0.241455078125-2.027099609375t0.409912109375-1.982177734375q0.044921875-0.25830078125,0.353759765625-0.320068359375t0.522216796875-0.061767578125q0.37060546875,0,0.59521484375,0.1123046875q0.08984375,0.044921875,0.16845703125,0.10107421875t0.07861328125,0.14599609375q0,0.9658203125-0.230224609375,1.88671875t-0.230224609375,1.9541015625q0,0.34814453125,0.050537109375,0.656982421875t0.095458984375,0.612060546875l0.0673828125,0.32568359375q0,0.08984375,0.01123046875,0.1572265625t0.03369140625,0.1572265625q0,0.2021484375-0.286376953125,0.275146484375t-0.499755859375,0.072998046875q-0.32568359375,0-0.600830078125-0.129150390625t-0.432373046875-0.443603515625l-0.1572265625-0.32568359375q-0.134765625-0.25830078125-0.134765625-0.578369140625t-0.05615234375-0.589599609375z M406.85391601563,26.78076171875l0-0.21337890625q0-0.52783203125,0.263916015625-0.943359375t0.791748046875-0.41552734375q0.0673828125,0,0.129150390625,0.01123046875t0.129150390625,0.01123046875q0.134765625,0.0224609375,0.353759765625,0.106689453125t0.218994140625,0.263916015625l0,0.0224609375q-0.044921875,0.08984375-0.05615234375,0.185302734375t-0.05615234375,0.162841796875l0.0224609375-0.0224609375q-0.134765625,0.34814453125-0.218994140625,0.5615234375t-0.185302734375,0.342529296875t-0.252685546875,0.185302734375t-0.432373046875,0.05615234375q-0.044921875,0-0.1572265625-0.01123046875t-0.241455078125-0.044921875t-0.218994140625-0.08984375t-0.08984375-0.16845703125z M411.05040527344,33.8671875l0-0.32568359375q0-0.404296875,0.0224609375-0.763671875q0.0224609375-0.50537109375,0.0224609375-0.8310546875q0-0.1796875,0.0224609375-0.409912109375t0.1123046875-0.364990234375q0.1123046875-0.1123046875,0.263916015625-0.230224609375t0.331298828125-0.117919921875q0.57275390625,0,0.8984375,0.129150390625t0.34814453125,0.533447265625l0.044921875,0.34814453125q0.2021484375-0.48291015625,0.5390625-1.196044921875t0.780517578125-1.35888671875t0.99951171875-1.1005859375t1.173583984375-0.454833984375q0.57275390625,0,0.943359375,0.5390625t0.589599609375,1.375732421875t0.308837890625,1.8642578125t0.12353515625,2.015869140625t0.044921875,1.802490234375t0.07861328125,1.229736328125q0.044921875,0.34814453125,0.151611328125,0.735595703125t0.106689453125,0.713134765625q0,0.08984375-0.129150390625,0.174072265625t-0.275146484375,0.140380859375t-0.297607421875,0.08984375t-0.218994140625,0.03369140625q-0.43798828125,0-0.623291015625-0.656982421875t-0.230224609375-1.645263671875t-0.044921875-2.139404296875t-0.07861328125-2.139404296875t-0.320068359375-1.645263671875t-0.769287109375-0.679443359375q-0.48291015625,0-0.99951171875,0.623291015625t-0.88720703125,1.656494140625q-0.359375,1.033203125-0.494140625,2.34716796875q-0.044921875,0.41552734375-0.044921875,0.8310546875q0,0.90966796875,0.19091796875,1.8193359375q0.0224609375,0.1572265625-0.129150390625,0.23583984375t-0.376220703125,0.12353515625t-0.454833984375,0.05615234375t-0.353759765625,0.01123046875q-0.43798828125,0-0.701904296875-0.308837890625t-0.409912109375-0.791748046875t-0.196533203125-1.083740234375t-0.061767578125-1.184814453125z M421.2551953125,34.271484375q0-0.7861328125,0.174072265625-1.85302734375t0.589599609375-2.021484375t1.094970703125-1.622802734375t1.712646484375-0.668212890625q0.9658203125,0,1.44873046875,0.555908203125t0.48291015625,1.499267578125q0,0.61767578125-0.230224609375,1.353271484375t-0.656982421875,1.392578125t-1.0107421875,1.094970703125t-1.302734375,0.43798828125l-0.2919921875-0.0224609375q0,0.30322265625,0.08984375,0.814208984375t0.263916015625,1.016357421875t0.44921875,0.88720703125t0.668212890625,0.3818359375q0.57275390625,0,1.1005859375-0.46044921875t0.99951171875-1.02197265625t0.8759765625-1.02197265625t0.7412109375-0.46044921875q0.1796875,0,0.37060546875,0.05615234375t0.21337890625,0.314453125q0,0.1572265625-0.084228515625,0.25830078125t-0.151611328125,0.224609375q-0.34814453125,0.59521484375-0.758056640625,1.13427734375t-0.926513671875,0.97705078125t-1.128662109375,0.690673828125t-1.353271484375,0.252685546875q-0.9658203125,0-1.60595703125-0.342529296875t-1.033203125-0.9208984375t-0.567138671875-1.33642578125t-0.174072265625-1.589111328125z M423.26544921875,33.41796875l0.314453125,0.28076171875q0.224609375,0.2021484375,0.44921875,0.08984375t0.404296875-0.409912109375t0.331298828125-0.735595703125t0.26953125-0.8984375t0.174072265625-0.8984375t0.05615234375-0.72998046875l0-0.3818359375t-0.03369140625-0.404296875t-0.117919921875-0.320068359375t-0.263916015625-0.162841796875q-0.05615234375-0.01123046875-0.10107421875-0.01123046875q-0.3818359375,0-0.6513671875,0.48291015625q-0.2919921875,0.5390625-0.4716796875,1.308349609375t-0.25830078125,1.577880859375t-0.10107421875,1.212890625z M430.64016113281,30.91357421875q0-0.46044921875,0.26953125-0.791748046875t0.656982421875-0.5390625t0.847900390625-0.308837890625t0.853515625-0.10107421875q0.30322265625,0,0.80859375,0.08984375t0.98828125,0.26953125t0.836669921875,0.4716796875t0.353759765625,0.68505859375q0,0.1796875-0.134765625,0.320068359375t-0.28076171875,0.140380859375q-0.30322265625,0-0.55029296875-0.196533203125t-0.510986328125-0.41552734375t-0.578369140625-0.41552734375t-0.70751953125-0.196533203125t-0.713134765625,0.252685546875t-0.320068359375,0.668212890625q0,0.68505859375,0.48291015625,1.342041015625t1.061279296875,1.38134765625t1.061279296875,1.521728515625t0.48291015625,1.76318359375q0,0.41552734375-0.174072265625,0.701904296875t-0.46044921875,0.466064453125t-0.645751953125,0.275146484375t-0.6962890625,0.095458984375q-0.37060546875,0-0.86474609375-0.174072265625t-0.93212890625-0.46044921875t-0.735595703125-0.668212890625t-0.297607421875-0.79736328125q0-0.2021484375,0.286376953125-0.25830078125t0.421142578125-0.05615234375q0.0673828125,0,0.207763671875,0.044921875t0.275146484375,0.10107421875t0.241455078125,0.12353515625t0.084228515625,0.14599609375q0.1123046875,0.134765625,0.342529296875,0.398681640625t0.46044921875,0.4267578125t0.404296875,0.117919921875t0.174072265625-0.50537109375q0-0.8759765625-0.4716796875-1.611572265625t-1.027587890625-1.4375t-1.027587890625-1.392578125t-0.4716796875-1.476806640625z M438.55393554688,30.91357421875q0-0.46044921875,0.26953125-0.791748046875t0.656982421875-0.5390625t0.847900390625-0.308837890625t0.853515625-0.10107421875q0.30322265625,0,0.80859375,0.08984375t0.98828125,0.26953125t0.836669921875,0.4716796875t0.353759765625,0.68505859375q0,0.1796875-0.134765625,0.320068359375t-0.28076171875,0.140380859375q-0.30322265625,0-0.55029296875-0.196533203125t-0.510986328125-0.41552734375t-0.578369140625-0.41552734375t-0.70751953125-0.196533203125t-0.713134765625,0.252685546875t-0.320068359375,0.668212890625q0,0.68505859375,0.48291015625,1.342041015625t1.061279296875,1.38134765625t1.061279296875,1.521728515625t0.48291015625,1.76318359375q0,0.41552734375-0.174072265625,0.701904296875t-0.46044921875,0.466064453125t-0.645751953125,0.275146484375t-0.6962890625,0.095458984375q-0.37060546875,0-0.86474609375-0.174072265625t-0.93212890625-0.46044921875t-0.735595703125-0.668212890625t-0.297607421875-0.79736328125q0-0.2021484375,0.286376953125-0.25830078125t0.421142578125-0.05615234375q0.0673828125,0,0.207763671875,0.044921875t0.275146484375,0.10107421875t0.241455078125,0.12353515625t0.084228515625,0.14599609375q0.1123046875,0.134765625,0.342529296875,0.398681640625t0.46044921875,0.4267578125t0.404296875,0.117919921875t0.174072265625-0.50537109375q0-0.8759765625-0.4716796875-1.611572265625t-1.027587890625-1.4375t-1.027587890625-1.392578125t-0.4716796875-1.476806640625z"/></svg>
