<?xml version="1.0"?>
<svg version="1.1" xmlns="http://www.w3.org/2000/svg" width="494" height="57" style=""><path fill="#4681ab" d="M22.29,25.773l-4.131,0l-1.026,0l-0.675,0l0,18.927l0.675,0l1.026,0l4.131,0q3.942,0,6.75-2.754q2.889-2.835,2.889-6.885q0-3.834-2.889-6.588q-2.835-2.7-6.75-2.7z M22.29,42.999l-4.131,0l0-15.471l4.131,0q3.375,0,5.67,2.214q2.268,2.214,2.268,5.319q0,3.375-2.268,5.643q-2.295,2.295-5.67,2.295z M50.85168,25.773l-1.701,0l0,11.529q0,2.484-1.728,4.158q-1.701,1.62-4.05,1.62q-2.565,0-4.131-1.62q-1.593-1.647-1.593-4.158l0-11.529l-1.728,0l0,11.529q0,3.078,2.106,5.238q2.133,2.214,5.346,2.214q2.997,0,5.265-2.214q2.214-2.16,2.214-5.238l0-11.529z M54.97836,44.646l1.674,0l0-11.421q0-2.268,1.728-3.996t3.996-1.728q2.214,0,3.996,1.728q1.701,1.701,1.701,3.996l0,11.421l1.728,0l0-11.421q0-2.322,1.728-3.996q1.728-1.728,3.969-1.728q2.268,0,3.996,1.728t1.728,3.996l0,11.421l1.674,0l0-11.421q0-3.078-2.16-5.238t-5.238-2.16q-2.025,0-3.807,1.107q-1.809,1.134-2.592,2.889q-1.053-1.809-2.835-2.889q-1.863-1.107-3.888-1.107q-3.051,0-5.211,2.16q-2.187,2.187-2.187,5.238l0,11.421z M87.10404,44.646l1.674,0l0-11.421q0-2.268,1.728-3.996t3.996-1.728q2.214,0,3.996,1.728q1.701,1.701,1.701,3.996l0,11.421l1.728,0l0-11.421q0-2.322,1.728-3.996q1.728-1.728,3.969-1.728q2.268,0,3.996,1.728t1.728,3.996l0,11.421l1.674,0l0-11.421q0-3.078-2.16-5.238t-5.238-2.16q-2.025,0-3.807,1.107q-1.809,1.134-2.592,2.889q-1.053-1.809-2.835-2.889q-1.863-1.107-3.888-1.107q-3.051,0-5.211,2.16q-2.187,2.187-2.187,5.238l0,11.421z M133.51272,25.8l-1.674,0l0,1.998q0,2.484-1.728,4.158q-1.701,1.62-4.05,1.62q-2.511,0-4.131-1.62t-1.62-4.158l0-1.998l-1.674,0l0,1.998q0,3.024,1.836,5.13q1.809,2.133,4.59,2.322l0,9.477l1.701,0l0-9.477q2.835-0.216,4.779-2.322q1.971-2.106,1.971-5.13l0-1.998z M147.97608,39.516q0-1.296,0.918-2.349q0.918-1.107,2.214-1.107l0.351,0l5.049,0l0-1.674l-5.049,0l-0.351,0q-1.377-0.27-2.2545-1.188t-0.8775-2.187q0-1.593,0.9315-2.5245t2.5515-0.9315l9.18,0l0-1.701l-9.18,0q-2.079,0-3.618,1.539q-1.539,1.485-1.539,3.618q0,1.35,0.513,2.457t1.512,1.593q-0.999,0.729-1.512,1.917t-0.513,2.538q0,2.106,1.539,3.591q1.566,1.566,3.618,1.566l9.18,0l0-1.782l-9.18,0q-1.62,0-2.5515-0.918t-0.9315-2.457z M178.18476,44.7l0-1.701l-4.806,0q-3.348,0-5.616-2.268t-2.268-5.616q0-3.078,2.268-5.292t5.616-2.214l4.806,0l0-1.755l-4.806,0q-4.077,0-6.831,2.7q-2.754,2.673-2.754,6.561q0,4.131,2.754,6.831q2.7,2.754,6.831,2.754l4.806,0z M189.06144,25.8q-3.051,0-5.238,2.187q-2.214,2.214-2.214,5.265l0,4.077q0,2.997,2.214,5.211t5.238,2.214q3.051,0,5.265-2.214q2.187-2.187,2.187-5.211l0-4.077q0-3.078-2.187-5.265t-5.265-2.187z M194.83944,33.252l0,4.077q0,2.457-1.728,4.131q-1.701,1.62-4.05,1.62t-4.023-1.62q-1.728-1.674-1.728-4.131l0-4.077q0-2.268,1.728-4.05q1.728-1.728,4.023-1.728q2.268,0,4.05,1.728q1.728,1.782,1.728,4.05z M200.53212,44.646l1.674,0l0-11.421q0-2.268,1.728-3.996t3.996-1.728q2.214,0,3.996,1.728q1.701,1.701,1.701,3.996l0,11.421l1.728,0l0-11.421q0-2.322,1.728-3.996q1.728-1.728,3.969-1.728q2.268,0,3.996,1.728t1.728,3.996l0,11.421l1.674,0l0-11.421q0-3.078-2.16-5.238t-5.238-2.16q-2.025,0-3.807,1.107q-1.809,1.134-2.592,2.889q-1.053-1.809-2.835-2.889q-1.863-1.107-3.888-1.107q-3.051,0-5.211,2.16q-2.187,2.187-2.187,5.238l0,11.421z M232.6578,44.646l1.674,0l0-11.421q0-2.268,1.728-3.996t3.996-1.728q2.214,0,3.996,1.728q1.701,1.701,1.701,3.996l0,11.421l1.728,0l0-11.421q0-2.322,1.728-3.996q1.728-1.728,3.969-1.728q2.268,0,3.996,1.728t1.728,3.996l0,11.421l1.674,0l0-11.421q0-3.078-2.16-5.238t-5.238-2.16q-2.025,0-3.807,1.107q-1.809,1.134-2.592,2.889q-1.053-1.809-2.835-2.889q-1.863-1.107-3.888-1.107q-3.051,0-5.211,2.16q-2.187,2.187-2.187,5.238l0,11.421z M266.34948,39.516q0-1.296,0.918-2.349q0.918-1.107,2.214-1.107l0.351,0l5.049,0l0-1.674l-5.049,0l-0.351,0q-1.377-0.27-2.2545-1.188t-0.8775-2.187q0-1.593,0.9315-2.5245t2.5515-0.9315l9.18,0l0-1.701l-9.18,0q-2.079,0-3.618,1.539q-1.539,1.485-1.539,3.618q0,1.35,0.513,2.457t1.512,1.593q-0.999,0.729-1.512,1.917t-0.513,2.538q0,2.106,1.539,3.591q1.566,1.566,3.618,1.566l9.18,0l0-1.782l-9.18,0q-1.62,0-2.5515-0.918t-0.9315-2.457z M290.64516,35.223l2.025,0q2.052,0,3.402-1.35t1.35-3.402q0-1.809-1.35-3.24q-1.431-1.485-3.402-1.485l-8.451,0l-1.674,0l0,18.954l1.674,0l0-9.477l4.401,0l5.751,9.477l2.025,0z M284.21916,33.549l0-6.102l8.451,0q1.242,0,2.187,0.891q0.891,0.891,0.891,2.133q0,1.296-0.891,2.187q-0.945,0.891-2.187,0.891l-8.451,0z M315.39984,44.7l0-1.701l-4.806,0q-3.348,0-5.616-2.268t-2.268-5.616q0-3.078,2.268-5.292t5.616-2.214l4.806,0l0-1.755l-4.806,0q-4.077,0-6.831,2.7q-2.754,2.673-2.754,6.561q0,4.131,2.754,6.831q2.7,2.754,6.831,2.754l4.806,0z M320.57952,39.516q0-1.296,0.918-2.349q0.918-1.107,2.214-1.107l0.351,0l5.049,0l0-1.674l-5.049,0l-0.351,0q-1.377-0.27-2.2545-1.188t-0.8775-2.187q0-1.593,0.9315-2.5245t2.5515-0.9315l9.18,0l0-1.701l-9.18,0q-2.079,0-3.618,1.539q-1.539,1.485-1.539,3.618q0,1.35,0.513,2.457t1.512,1.593q-0.999,0.729-1.512,1.917t-0.513,2.538q0,2.106,1.539,3.591q1.566,1.566,3.618,1.566l9.18,0l0-1.782l-9.18,0q-1.62,0-2.5515-0.918t-0.9315-2.457z"/><path fill="#ffffff" d="M346.83688359375,23.2021484375q-0.0341796875-0.4169921875,0.0546875-0.724609375t0.35546875-0.505859375t0.8544921875-0.1982421875l2.201171875,0q0.451171875,0,1.1826171875,0.0478515625t1.572265625,0.1435546875t1.6748046875,0.2939453125t1.5244140625,0.4921875t1.12109375,0.724609375t0.4306640625,1.0185546875q0,0.833984375-0.4853515625,1.5654296875t-1.216796875,1.3193359375t-1.544921875,1.0458984375t-1.4560546875,0.8271484375q2.54296875,0.560546875,3.978515625,2.32421875t1.435546875,4.40234375q0,1.39453125-0.533203125,2.7548828125t-1.4560546875,2.4541015625t-2.1875,1.763671875t-2.7138671875,0.669921875q-0.19140625,0-0.4306640625-0.041015625t-0.4375-0.1298828125t-0.341796875-0.2529296875t-0.1435546875-0.423828125q0-1.203125,1.298828125-1.203125q0.21875,0,0.5126953125,0.0615234375t0.4580078125,0.2529296875q0.751953125-0.314453125,1.3740234375-0.998046875t1.052734375-1.5244140625t0.669921875-1.763671875t0.2392578125-1.6748046875q0-0.90234375-0.2666015625-1.8388671875t-0.7724609375-1.736328125t-1.244140625-1.3466796875t-1.6953125-0.68359375q-0.24609375-0.02734375-0.5400390625-0.041015625l-0.587890625-0.02734375t-0.57421875-0.08203125t-0.4853515625-0.21875q0.109375,2.26953125,0.2802734375,4.525390625t0.4580078125,4.525390625q0.109375,0.109375,0.150390625,0.3212890625t0.068359375,0.451171875t0.02734375,0.4580078125l0,0.369140625q0,0.24609375-0.1640625,0.4033203125t-0.3896484375,0.2529296875t-0.478515625,0.123046875t-0.4443359375,0.02734375q-0.615234375,0-0.943359375-0.1640625t-0.46484375-0.478515625t-0.177734375-0.7177734375t-0.068359375-0.8818359375q-0.369140625-3.814453125-0.533203125-7.546875t-0.1640625-7.546875q0-0.451171875-0.0341796875-0.8681640625z M349.35934453125,22.62109375q0,1.681640625,0.109375,3.3701171875t0.19140625,3.3701171875q0.615234375-0.369140625,1.61328125-0.8681640625t1.9345703125-1.1005859375t1.6064453125-1.326171875t0.669921875-1.572265625q0-0.669921875-0.79296875-1.0185546875t-1.845703125-0.51953125t-2.0576171875-0.2119140625t-1.4287109375-0.123046875z M360.7435046875,36.197265625q0-0.2734375,0.0615234375-0.724609375t0.1435546875-0.8955078125t0.19140625-0.8271484375t0.259765625-0.4921875q0.109375-0.109375,0.3759765625-0.21875t0.560546875-0.1572265625t0.546875,0.041015625t0.3076171875,0.3623046875q-0.19140625,0.24609375-0.3486328125,0.8408203125t-0.2392578125,1.3193359375q-0.068359375,0.615234375-0.068359375,1.271484375l0,0.232421875q0.013671875,0.765625,0.13671875,1.408203125t0.3759765625,1.0595703125t0.7041015625,0.4169921875q0.95703125,0,1.75-0.8818359375t1.408203125-2.1533203125t1.080078125-2.7001953125t0.79296875-2.4951171875q0.08203125-0.314453125,0.3896484375-0.423828125t0.6630859375-0.0751953125t0.6357421875,0.1708984375t0.3349609375,0.328125q-0.2734375,2.296875-0.4306640625,4.59375t-0.1572265625,4.62109375q0,0.451171875,0.041015625,0.8271484375t-0.041015625,0.642578125t-0.3623046875,0.423828125t-0.8955078125,0.1572265625q-0.13671875,0-0.3486328125-0.02734375t-0.4375-0.0888671875t-0.3828125-0.1845703125t-0.1572265625-0.287109375q0-1.01171875,0.0751953125-2.078125t0.2119140625-2.064453125q-0.369140625,0.533203125-0.8134765625,1.0595703125t-0.9775390625,0.9501953125t-1.1484375,0.6767578125t-1.326171875,0.2529296875q-1.01171875,0-1.5927734375-0.478515625t-0.875-1.1962890625t-0.369140625-1.5654296875t-0.0751953125-1.640625z M373.60422734375,34.3515625q0-0.396484375,0.2255859375-0.51953125t0.5673828125-0.123046875q0.560546875,0,0.8544921875,0.2119140625t0.2939453125,0.7451171875q0,0.642578125,0.095703125,1.6064453125t0.2802734375,1.873046875t0.4375,1.5654296875t0.5263671875,0.65625q0.505859375,0,0.8955078125-0.779296875t0.68359375-1.9140625t0.505859375-2.4404296875t0.2939453125-2.3310546875q0.0546875-0.560546875,0.2666015625-0.8134765625t0.7724609375-0.2529296875q0.642578125,0,0.9365234375,0.533203125t0.3759765625,1.3125q0.068359375,0.669921875,0.068359375,1.39453125l0,0.232421875l0,0.546875q0,0.51953125,0.013671875,0.9296875l0.396484375,8.380859375l0.0546875,1.39453125q0.02734375,0.19140625,0.041015625,0.3623046875t0.013671875,0.3623046875q0,0.779296875-0.3349609375,1.0048828125t-1.0869140625,0.2255859375q-0.1640625,0-0.4169921875-0.02734375t-0.4921875-0.109375t-0.41015625-0.2255859375t-0.1708984375-0.3623046875l0.0546875-0.13671875q0.068359375-0.8203125,0.068359375-1.72265625l0-0.287109375q-0.013671875-1.06640625-0.068359375-2.16015625t-0.123046875-2.1875t-0.068359375-2.10546875q-0.19140625,0.423828125-0.4443359375,0.875t-0.587890625,0.8134765625t-0.7587890625,0.6015625t-0.95703125,0.2392578125q-0.779296875,0-1.28515625-0.41015625t-0.7861328125-1.06640625t-0.4033203125-1.4697265625t-0.1640625-1.626953125t-0.0546875-1.5517578125t-0.109375-1.244140625z M390.27489140625,26.0595703125q-0.02734375-0.3623046875,0.0615234375-0.68359375t0.3349609375-0.533203125t0.833984375-0.2119140625q0.13671875,0,0.3349609375,0.02734375t0.396484375,0.0888671875t0.3212890625,0.1708984375t0.123046875,0.30078125q0,0.505859375,0.0341796875,1.3330078125t0.0888671875,1.72265625t0.1025390625,1.75t0.0888671875,1.3876953125q1.06640625-0.0546875,2.146484375-0.0546875t2.1328125-0.0546875l1.88671875-0.0546875l0-1.353515625q0-2.26953125-0.0888671875-4.5458984375t-0.3076171875-4.5458984375q0-0.1640625,0.13671875-0.2666015625t0.3212890625-0.1572265625t0.3828125-0.068359375t0.3076171875-0.013671875q0.314453125,0,0.6767578125,0.095703125t0.4169921875,0.41015625l0.08203125,0.587890625q0.341796875,2.4609375,0.46484375,4.8671875t0.177734375,4.8125q0.1640625,0.02734375,0.3486328125,0.0888671875t0.3759765625,0.1162109375q0.13671875,0.0546875,0.3896484375,0.1640625t0.2529296875,0.341796875q0,0.21875-0.19140625,0.341796875t-0.4306640625,0.1845703125t-0.46484375,0.0751953125t-0.2802734375,0.013671875q0.02734375,1.01171875,0.02734375,2.0166015625l0,2.0166015625l0,4.416015625l0,2.4609375q0,0.1640625-0.1572265625,0.2939453125t-0.3759765625,0.2119140625t-0.4580078125,0.109375t-0.4306640625,0.02734375t-0.451171875-0.02734375t-0.46484375-0.109375t-0.3623046875-0.205078125t-0.1572265625-0.30078125l0-0.587890625q0.0546875-2.59765625,0.123046875-5.1474609375t0.13671875-5.1201171875q-1.490234375,0.0546875-3.0283203125,0.068359375t-3.0556640625,0.068359375q0.1640625,1.927734375,0.3759765625,3.8486328125t0.4443359375,3.8486328125q0,0.1640625-0.1572265625,0.2939453125t-0.369140625,0.2119140625t-0.451171875,0.109375t-0.4306640625,0.02734375q-0.396484375,0-0.8681640625-0.13671875t-0.5263671875-0.505859375q-0.1640625-1.44921875-0.3076171875-3.19921875t-0.2529296875-3.5751953125t-0.1708984375-3.5751953125t-0.0615234375-3.171875q0-0.341796875-0.02734375-0.7041015625z M405.8973328125,37.400390625q0-0.9296875,0.2529296875-1.791015625t0.7587890625-1.5380859375t1.2646484375-1.080078125t1.7568359375-0.4033203125q0.615234375,0,1.3603515625,0.1845703125t1.4013671875,0.546875t1.09375,0.9228515625t0.4375,1.28515625q0,0.341796875-0.1162109375,0.51953125t-0.4716796875,0.177734375l-0.150390625-0.02734375q0.396484375,1.06640625,0.68359375,2.1875t0.560546875,2.2421875q0.109375,0.21875,0.1640625,0.3896484375t0.0546875,0.3349609375q0,0.21875-0.123046875,0.3623046875t-0.3212890625,0.2119140625t-0.41015625,0.095703125t-0.3759765625,0.02734375q-0.587890625,0-0.8818359375-0.205078125t-0.423828125-0.560546875t-0.1572265625-0.7998046875t-0.109375-0.8955078125q-0.1640625,0.533203125-0.4306640625,1.0390625t-0.62890625,0.9091796875t-0.8544921875,0.642578125t-1.107421875,0.2392578125q-0.90234375,0-1.517578125-0.51953125t-0.9912109375-1.2783203125t-0.546875-1.6201171875t-0.1708984375-1.599609375z M407.8387390625,37.208984375q0,0.505859375,0.068359375,1.06640625t0.2255859375,1.107421875t0.4033203125,1.0322265625t0.615234375,0.8544921875q0.669921875-0.724609375,0.9912109375-1.763671875t0.57421875-2.0029296875t0.57421875-1.654296875t0.9912109375-0.6904296875q0.423828125,0,0.7109375,0.150390625q-0.13671875-0.341796875-0.451171875-0.6630859375t-0.7041015625-0.587890625t-0.806640625-0.4375t-0.7861328125-0.1708984375q-0.109375,0-0.2529296875,0.0341796875t-0.2255859375,0.0068359375q-0.560546875,0.1640625-0.9228515625,0.5673828125t-0.587890625,0.9501953125t-0.3212890625,1.12109375t-0.095703125,1.080078125z M417.74633671875,32.451171875q0-0.642578125,0.2529296875-0.9501953125t0.9228515625-0.3076171875q0.396484375,0,0.7451171875,0.1640625t0.3486328125,0.697265625q0.0546875,0.779296875,0.0546875,1.6337890625t0.150390625,1.6201171875q0.341796875-0.560546875,0.7724609375-1.12109375t0.9501953125-0.998046875t1.134765625-0.7041015625t1.33984375-0.2666015625q0.984375,0,1.66796875,0.41015625t1.1279296875,1.06640625t0.642578125,1.4833984375t0.1982421875,1.6611328125q0,1.28515625-0.3896484375,2.0986328125t-1.0322265625,1.2783203125t-1.4560546875,0.62890625t-1.6337890625,0.1640625q-0.724609375,0-1.353515625-0.2802734375t-0.875-1.0595703125q0-0.21875,0.3212890625-0.2734375t0.4580078125-0.0546875q0.451171875,0,0.669921875,0.24609375q0.1640625,0.19140625,0.3623046875,0.3896484375t0.4169921875,0.1982421875q0.423828125,0,0.888671875-0.2392578125t0.8544921875-0.62890625t0.65625-0.9228515625t0.2666015625-1.09375q0-0.478515625-0.08203125-1.189453125t-0.2802734375-1.3671875t-0.546875-1.134765625t-0.8818359375-0.478515625q-0.806640625,0-1.4560546875,0.73828125t-1.080078125,1.77734375t-0.669921875,2.16015625t-0.2392578125,1.873046875t0.095703125,1.900390625t0.1982421875,2.3857421875t0.1982421875,2.3857421875t0.095703125,1.900390625q0,0.19140625-0.1572265625,0.3076171875t-0.3759765625,0.1845703125t-0.4443359375,0.08203125t-0.3349609375,0.013671875q-0.369140625,0-0.7724609375-0.08203125t-0.5537109375-0.505859375q-0.19140625-0.669921875-0.35546875-1.9072265625t-0.2939453125-2.734375t-0.2255859375-3.14453125t-0.1640625-3.1787109375t-0.1025390625-2.802734375t-0.0341796875-2.0234375z M430.853153125,32.451171875q0-0.642578125,0.2529296875-0.9501953125t0.9228515625-0.3076171875q0.396484375,0,0.7451171875,0.1640625t0.3486328125,0.697265625q0.0546875,0.779296875,0.0546875,1.6337890625t0.150390625,1.6201171875q0.341796875-0.560546875,0.7724609375-1.12109375t0.9501953125-0.998046875t1.134765625-0.7041015625t1.33984375-0.2666015625q0.984375,0,1.66796875,0.41015625t1.1279296875,1.06640625t0.642578125,1.4833984375t0.1982421875,1.6611328125q0,1.28515625-0.3896484375,2.0986328125t-1.0322265625,1.2783203125t-1.4560546875,0.62890625t-1.6337890625,0.1640625q-0.724609375,0-1.353515625-0.2802734375t-0.875-1.0595703125q0-0.21875,0.3212890625-0.2734375t0.4580078125-0.0546875q0.451171875,0,0.669921875,0.24609375q0.1640625,0.19140625,0.3623046875,0.3896484375t0.4169921875,0.1982421875q0.423828125,0,0.888671875-0.2392578125t0.8544921875-0.62890625t0.65625-0.9228515625t0.2666015625-1.09375q0-0.478515625-0.08203125-1.189453125t-0.2802734375-1.3671875t-0.546875-1.134765625t-0.8818359375-0.478515625q-0.806640625,0-1.4560546875,0.73828125t-1.080078125,1.77734375t-0.669921875,2.16015625t-0.2392578125,1.873046875t0.095703125,1.900390625t0.1982421875,2.3857421875t0.1982421875,2.3857421875t0.095703125,1.900390625q0,0.19140625-0.1572265625,0.3076171875t-0.3759765625,0.1845703125t-0.4443359375,0.08203125t-0.3349609375,0.013671875q-0.369140625,0-0.7724609375-0.08203125t-0.5537109375-0.505859375q-0.19140625-0.669921875-0.35546875-1.9072265625t-0.2939453125-2.734375t-0.2255859375-3.14453125t-0.1640625-3.1787109375t-0.1025390625-2.802734375t-0.0341796875-2.0234375z M443.95996953125,37.072265625q0-1.2578125,0.2939453125-2.4677734375t0.4990234375-2.4130859375q0.0546875-0.314453125,0.4306640625-0.3896484375t0.6357421875-0.0751953125q0.451171875,0,0.724609375,0.13671875q0.109375,0.0546875,0.205078125,0.123046875t0.095703125,0.177734375q0,1.17578125-0.2802734375,2.296875t-0.2802734375,2.37890625q0,0.423828125,0.0615234375,0.7998046875t0.1162109375,0.7451171875l0.08203125,0.396484375q0,0.109375,0.013671875,0.19140625t0.041015625,0.19140625q0,0.24609375-0.3486328125,0.3349609375t-0.6083984375,0.0888671875q-0.396484375,0-0.7314453125-0.1572265625t-0.5263671875-0.5400390625l-0.19140625-0.396484375q-0.1640625-0.314453125-0.1640625-0.7041015625t-0.068359375-0.7177734375z M444.83496953125,28.841796875l0-0.259765625q0-0.642578125,0.3212890625-1.1484375t0.9638671875-0.505859375q0.08203125,0,0.1572265625,0.013671875t0.1572265625,0.013671875q0.1640625,0.02734375,0.4306640625,0.1298828125t0.2666015625,0.3212890625l0,0.02734375q-0.0546875,0.109375-0.068359375,0.2255859375t-0.068359375,0.1982421875l0.02734375-0.02734375q-0.1640625,0.423828125-0.2666015625,0.68359375t-0.2255859375,0.4169921875t-0.3076171875,0.2255859375t-0.5263671875,0.068359375q-0.0546875,0-0.19140625-0.013671875t-0.2939453125-0.0546875t-0.2666015625-0.109375t-0.109375-0.205078125z M449.9437390625,37.46875l0-0.396484375q0-0.4921875,0.02734375-0.9296875q0.02734375-0.615234375,0.02734375-1.01171875q0-0.21875,0.02734375-0.4990234375t0.13671875-0.4443359375q0.13671875-0.13671875,0.3212890625-0.2802734375t0.4033203125-0.1435546875q0.697265625,0,1.09375,0.1572265625t0.423828125,0.6494140625l0.0546875,0.423828125q0.24609375-0.587890625,0.65625-1.4560546875t0.9501953125-1.654296875t1.216796875-1.33984375t1.4287109375-0.5537109375q0.697265625,0,1.1484375,0.65625t0.7177734375,1.6748046875t0.3759765625,2.26953125t0.150390625,2.4541015625t0.0546875,2.1943359375t0.095703125,1.4970703125q0.0546875,0.423828125,0.1845703125,0.8955078125t0.1298828125,0.8681640625q0,0.109375-0.1572265625,0.2119140625t-0.3349609375,0.1708984375t-0.3623046875,0.109375t-0.2666015625,0.041015625q-0.533203125,0-0.7587890625-0.7998046875t-0.2802734375-2.0029296875t-0.0546875-2.6044921875t-0.095703125-2.6044921875t-0.3896484375-2.0029296875t-0.9365234375-0.8271484375q-0.587890625,0-1.216796875,0.7587890625t-1.080078125,2.0166015625q-0.4375,1.2578125-0.6015625,2.857421875q-0.0546875,0.505859375-0.0546875,1.01171875q0,1.107421875,0.232421875,2.21484375q0.02734375,0.19140625-0.1572265625,0.287109375t-0.4580078125,0.150390625t-0.5537109375,0.068359375t-0.4306640625,0.013671875q-0.533203125,0-0.8544921875-0.3759765625t-0.4990234375-0.9638671875t-0.2392578125-1.3193359375t-0.0751953125-1.4423828125z M462.36696171875,37.9609375q0-0.95703125,0.2119140625-2.255859375t0.7177734375-2.4609375t1.3330078125-1.9755859375t2.0849609375-0.8134765625q1.17578125,0,1.763671875,0.6767578125t0.587890625,1.8251953125q0,0.751953125-0.2802734375,1.6474609375t-0.7998046875,1.6953125t-1.23046875,1.3330078125t-1.5859375,0.533203125l-0.35546875-0.02734375q0,0.369140625,0.109375,0.9912109375t0.3212890625,1.2373046875t0.546875,1.080078125t0.8134765625,0.46484375q0.697265625,0,1.33984375-0.560546875t1.216796875-1.244140625t1.06640625-1.244140625t0.90234375-0.560546875q0.21875,0,0.451171875,0.068359375t0.259765625,0.3828125q0,0.19140625-0.1025390625,0.314453125t-0.1845703125,0.2734375q-0.423828125,0.724609375-0.9228515625,1.380859375t-1.1279296875,1.189453125t-1.3740234375,0.8408203125t-1.6474609375,0.3076171875q-1.17578125,0-1.955078125-0.4169921875t-1.2578125-1.12109375t-0.6904296875-1.626953125t-0.2119140625-1.9345703125z M464.81422734375,36.921875l0.3828125,0.341796875q0.2734375,0.24609375,0.546875,0.109375t0.4921875-0.4990234375t0.4033203125-0.8955078125t0.328125-1.09375t0.2119140625-1.09375t0.068359375-0.888671875l0-0.46484375t-0.041015625-0.4921875t-0.1435546875-0.3896484375t-0.3212890625-0.1982421875q-0.068359375-0.013671875-0.123046875-0.013671875q-0.46484375,0-0.79296875,0.587890625q-0.35546875,0.65625-0.57421875,1.5927734375t-0.314453125,1.9208984375t-0.123046875,1.4765625z M473.7921375,33.873046875q0-0.560546875,0.328125-0.9638671875t0.7998046875-0.65625t1.0322265625-0.3759765625t1.0390625-0.123046875q0.369140625,0,0.984375,0.109375t1.203125,0.328125t1.0185546875,0.57421875t0.4306640625,0.833984375q0,0.21875-0.1640625,0.3896484375t-0.341796875,0.1708984375q-0.369140625,0-0.669921875-0.2392578125t-0.6220703125-0.505859375t-0.7041015625-0.505859375t-0.861328125-0.2392578125t-0.8681640625,0.3076171875t-0.3896484375,0.8134765625q0,0.833984375,0.587890625,1.6337890625t1.2919921875,1.681640625t1.2919921875,1.8525390625t0.587890625,2.146484375q0,0.505859375-0.2119140625,0.8544921875t-0.560546875,0.5673828125t-0.7861328125,0.3349609375t-0.84765625,0.1162109375q-0.451171875,0-1.052734375-0.2119140625t-1.134765625-0.560546875t-0.8955078125-0.8134765625t-0.3623046875-0.970703125q0-0.24609375,0.3486328125-0.314453125t0.5126953125-0.068359375q0.08203125,0,0.2529296875,0.0546875t0.3349609375,0.123046875t0.2939453125,0.150390625t0.1025390625,0.177734375q0.13671875,0.1640625,0.4169921875,0.4853515625t0.560546875,0.51953125t0.4921875,0.1435546875t0.2119140625-0.615234375q0-1.06640625-0.57421875-1.9619140625t-1.2509765625-1.75t-1.2509765625-1.6953125t-0.57421875-1.7978515625z M483.42629765625,33.873046875q0-0.560546875,0.328125-0.9638671875t0.7998046875-0.65625t1.0322265625-0.3759765625t1.0390625-0.123046875q0.369140625,0,0.984375,0.109375t1.203125,0.328125t1.0185546875,0.57421875t0.4306640625,0.833984375q0,0.21875-0.1640625,0.3896484375t-0.341796875,0.1708984375q-0.369140625,0-0.669921875-0.2392578125t-0.6220703125-0.505859375t-0.7041015625-0.505859375t-0.861328125-0.2392578125t-0.8681640625,0.3076171875t-0.3896484375,0.8134765625q0,0.833984375,0.587890625,1.6337890625t1.2919921875,1.681640625t1.2919921875,1.8525390625t0.587890625,2.146484375q0,0.505859375-0.2119140625,0.8544921875t-0.560546875,0.5673828125t-0.7861328125,0.3349609375t-0.84765625,0.1162109375q-0.451171875,0-1.052734375-0.2119140625t-1.134765625-0.560546875t-0.8955078125-0.8134765625t-0.3623046875-0.970703125q0-0.24609375,0.3486328125-0.314453125t0.5126953125-0.068359375q0.08203125,0,0.2529296875,0.0546875t0.3349609375,0.123046875t0.2939453125,0.150390625t0.1025390625,0.177734375q0.13671875,0.1640625,0.4169921875,0.4853515625t0.560546875,0.51953125t0.4921875,0.1435546875t0.2119140625-0.615234375q0-1.06640625-0.57421875-1.9619140625t-1.2509765625-1.75t-1.2509765625-1.6953125t-0.57421875-1.7978515625z"/></svg>
